<?xml version="1.0" encoding="utf-8"?>
<!-- Generator: Adobe Illustrator 22.1.0, SVG Export Plug-In . SVG Version: 6.00 Build 0)  -->
<svg version="1.1" id="Isolation_Mode" xmlns="http://www.w3.org/2000/svg" xmlns:xlink="http://www.w3.org/1999/xlink" x="0px"
	 y="0px" viewBox="0 0 68.1 72.7" style="enable-background:new 0 0 68.1 72.7;" xml:space="preserve">
<style type="text/css">
	.st0{fill:#250629;}
</style>
<g>
	<polygon class="st0" points="33.1,36.6 28.6,32.1 32.1,28.6 34.6,31.1 41.1,29.5 42.7,23 40.2,20.5 43.7,17 48.2,21.5 45.2,33.6 	
		"/>
	<rect x="43.5" y="30.3" transform="matrix(0.707 -0.7072 0.7072 0.707 -10.8594 42.6226)" class="st0" width="5" height="8.2"/>
	<polygon class="st0" points="21.5,48.2 17,43.7 20.5,40.2 23,42.7 29.5,41.1 31.4,33.2 36.3,34.4 33.6,45.2 	"/>
	<path class="st0" d="M30.4,60.7c-7.9,0-15.7-3.1-21.5-8.9l3.5-3.5c7,7,17.6,9.3,26.9,5.8l1.8,4.7C37.6,60.1,34,60.7,30.4,60.7z"/>
	<path class="st0" d="M59.4,39.2l-4.8-1.5c2.7-9,0.3-18.7-6.3-25.3l3.5-3.5C59.8,16.8,62.7,28.4,59.4,39.2z"/>
	<rect x="45" y="17.7" transform="matrix(0.9286 -0.3711 0.3711 0.9286 -3.9081 20.1691)" class="st0" width="10.8" height="5"/>
	<rect x="15.1" y="48.1" transform="matrix(0.3118 -0.9502 0.9502 0.3118 -33.93 54.3478)" class="st0" width="10.9" height="5"/>
	<polygon class="st0" points="28.6,32.1 24.1,27.6 27.1,15.5 39.2,12.5 43.7,17 40.2,20.5 37.7,18.1 31.3,19.7 29.7,26.1 32.1,28.6 
			"/>
	<polygon class="st0" points="15.8,31 9,24.2 12.1,12.1 24.2,9 31,15.8 27.4,19.4 22.6,14.6 16.2,16.2 14.6,22.6 19.4,27.4 	"/>
	<polygon class="st0" points="17,43.7 12.5,39.2 15.5,27.1 26.3,24.5 27.5,29.3 19.7,31.3 18.1,37.7 20.5,40.2 	"/>
	<path class="st0" d="M8.9,51.8C-3,40-3,20.7,8.9,8.9C20.7-3,40-3,51.8,8.9l-3.5,3.5c-9.9-9.9-26-9.9-35.9,0c-9.9,9.9-9.9,26,0,35.9
		L8.9,51.8z"/>
	<rect x="35.1" y="7.8" transform="matrix(0.3711 -0.9286 0.9286 0.3711 15.9225 44.0502)" class="st0" width="10.8" height="5"/>
	<rect x="19.9" y="4.9" transform="matrix(0.2238 -0.9746 0.9746 0.2238 11.7809 29.5221)" class="st0" width="9.1" height="5"/>
	<rect x="2.7" y="22.1" transform="matrix(0.9683 -0.2496 0.2496 0.9683 -5.8966 2.6102)" class="st0" width="9.2" height="5"/>
	<rect x="4.7" y="37.7" transform="matrix(0.9502 -0.3118 0.3118 0.9502 -12.0195 5.1592)" class="st0" width="10.9" height="5"/>
	<rect x="9.9" y="9.9" transform="matrix(0.7071 -0.7071 0.7071 0.7071 -5.1314 12.3894)" class="st0" width="5" height="4.9"/>
	<rect x="44.7" y="36.5" transform="matrix(0.7071 -0.7071 0.7071 0.7071 -19.539 47.1751)" class="st0" width="5" height="21.3"/>
	<rect x="56.3" y="36.5" transform="matrix(0.7071 -0.7071 0.7071 0.7071 -16.1427 55.3741)" class="st0" width="5" height="21.3"/>
	<rect x="46.4" y="45.7" transform="matrix(0.7071 -0.7071 0.7071 0.7071 -28.4578 52.3081)" class="st0" width="5" height="29.5"/>
	<rect x="31.3" y="42.2" transform="matrix(0.7071 -0.7071 0.7071 0.7071 -22.2149 37.2352)" class="st0" width="5" height="6.6"/>
</g>
</svg>
