<?xml version="1.0" encoding="utf-8"?>
<!-- Generator: Adobe Illustrator 22.1.0, SVG Export Plug-In . SVG Version: 6.00 Build 0)  -->
<svg version="1.1" id="Layer_1" xmlns="http://www.w3.org/2000/svg" xmlns:xlink="http://www.w3.org/1999/xlink" x="0px" y="0px"
	 viewBox="0 0 2276 1009" style="enable-background:new 0 0 2276 1009;" xml:space="preserve">
<style type="text/css">
	.st0{fill:#E0EEF2;}
	.st1{fill:#FFFFFF;}
</style>
<g>
	<circle class="st0" cx="1397" cy="201" r="63"/>
	<circle class="st0" cx="1075" cy="174" r="63"/>
	<g>
		<rect x="8" y="286" class="st1" width="2204" height="478"/>
		<circle class="st1" cx="1217.5" cy="260.5" r="193.5"/>
		<circle class="st1" cx="947" cy="211" r="123"/>
		<circle class="st1" cx="502" cy="256" r="129"/>
		<circle class="st1" cx="710.5" cy="321.5" r="130.5"/>
		<circle class="st1" cx="863.5" cy="278.5" r="130.5"/>
		<circle class="st1" cx="248" cy="349" r="248"/>
		<circle class="st1" cx="1934" cy="327" r="248"/>
		<circle class="st1" cx="1498" cy="262" r="123"/>
		<circle class="st1" cx="1704.5" cy="178.5" r="178.5"/>
		<g>
			<path class="st0" d="M1902,749.5V644H902v242.4c12.8,4,26.4,6.1,40.5,6.1c68,0,124.4-49.5,135.1-114.4
				c12.9-3.2,24.7-9.1,34.9-16.9c10.8,5.9,23.2,9.3,36.4,9.3c32.4,0,60-20.2,70.9-48.7c19.7-1.8,36.1-14.6,43.2-32.2
				c7.8,6.2,17.6,10,28.3,10c17.4,0,32.4-9.8,40-24.1c6.9,12.1,19,20.8,33.3,23.1c4.3,53.5,49.1,95.6,103.6,95.6
				c8.6,0,17-1.1,25.1-3c1,18.4,16.3,33,34.9,33c1.8,0,3.6-0.1,5.4-0.4c-0.2,2.1-0.4,4.2-0.4,6.4c0,30.9,25.1,56,56,56
				c10.7,0,20.6-3,29.1-8.2c12.6,14.3,31.1,23.4,51.7,23.4c38,0,68.8-30.8,68.8-68.8c0-1.4,0-2.8-0.1-4.2c2.1,0.4,4.4,0.7,6.6,0.7
				c17.5,0,31.9-13.2,33.8-30.2c4.5,0.8,9,1.2,13.7,1.2c40.4,0,74-29.1,81.1-67.5C1881.9,740.2,1891.4,746.1,1902,749.5z"/>
			<path class="st0" d="M1358,750.5V645H358v242.4c12.8,4,26.4,6.1,40.5,6.1c68,0,124.4-49.5,135.1-114.4
				c12.9-3.2,24.7-9.1,34.9-16.9c10.8,5.9,23.2,9.3,36.4,9.3c32.4,0,60-20.2,70.9-48.7c19.7-1.8,36.1-14.6,43.2-32.2
				c7.8,6.2,17.6,10,28.3,10c17.4,0,32.4-9.8,40-24.1c6.9,12.1,19,20.8,33.3,23.1c4.3,53.5,49.1,95.6,103.6,95.6
				c8.6,0,17-1.1,25.1-3c1,18.4,16.3,33,34.9,33c1.8,0,3.6-0.1,5.4-0.4c-0.2,2.1-0.4,4.2-0.4,6.4c0,30.9,25.1,56,56,56
				c10.7,0,20.6-3,29.1-8.2c12.6,14.3,31.1,23.4,51.7,23.4c38,0,68.8-30.8,68.8-68.8c0-1.4,0-2.8-0.1-4.2c2.1,0.4,4.4,0.7,6.6,0.7
				c17.5,0,31.9-13.2,33.8-30.2c4.5,0.8,9,1.2,13.7,1.2c40.4,0,74-29.1,81.1-67.5C1337.9,741.2,1347.4,747.1,1358,750.5z"/>
			<path class="st1" d="M1801.7,714.1V564H445v335.9c17.4,5.4,35.8,8.3,54.9,8.3c92.2,0,168.7-67.2,183.3-155.2
				c17.4-4.4,33.5-12.3,47.4-22.9c14.7,8,31.5,12.6,49.4,12.6c43.9,0,81.4-27.5,96.2-66.1c26.7-2.5,49-19.9,58.7-43.7
				c10.5,8.5,23.9,13.5,38.4,13.5c23.6,0,44-13.3,54.3-32.7c9.3,16.5,25.8,28.3,45.2,31.3c5.8,72.6,66.6,129.7,140.6,129.7
				c11.7,0,23.1-1.4,34-4.1c1.4,25,22.1,44.8,47.4,44.8c2.5,0,4.9-0.2,7.3-0.6c-0.3,2.8-0.5,5.8-0.5,8.7c0,42,34,76,76,76
				c14.5,0,28-4,39.5-11.1c17.1,19.5,42.1,31.7,70.1,31.7c51.5,0,93.3-41.8,93.3-93.3c0-1.9-0.1-3.8-0.2-5.6c2.9,0.6,5.9,0.9,9,0.9
				c23.7,0,43.2-17.9,45.8-40.9c6.1,1,12.3,1.6,18.6,1.6c54.9,0,100.5-39.5,110.1-91.6C1774.4,701.5,1787.3,709.5,1801.7,714.1z"/>
			<circle class="st1" cx="1223.5" cy="644.5" r="193.5"/>
			<circle class="st1" cx="895.5" cy="709.5" r="193.5"/>
			<circle class="st1" cx="680" cy="706" r="159"/>
		</g>
		<circle class="st1" cx="258" cy="761" r="248"/>
		<circle class="st1" cx="2028" cy="692" r="248"/>
	</g>
</g>
</svg>
