<?xml version="1.0" encoding="utf-8"?>
<!-- Generator: Adobe Illustrator 22.1.0, SVG Export Plug-In . SVG Version: 6.00 Build 0)  -->
<svg version="1.1" id="Layer_1" xmlns="http://www.w3.org/2000/svg" xmlns:xlink="http://www.w3.org/1999/xlink" x="0px" y="0px"
	 viewBox="0 0 2783 740" style="enable-background:new 0 0 2783 740;" xml:space="preserve">
<style type="text/css">
	.st0{fill:#FFFFFF;}
</style>
<g>
	<path class="st0" d="M762,218.9V362h1356.7V33.1c-17.4-5.4-35.8-8.3-54.9-8.3c-92.2,0-168.7,67.2-183.3,155.2
		c-17.4,4.4-33.5,12.3-47.4,22.9c-14.7-8-31.5-12.6-49.4-12.6c-43.9,0-81.4,27.5-96.2,66.1c-26.7,2.5-49,19.9-58.7,43.7
		c-10.5-8.5-23.9-13.5-38.4-13.5c-23.6,0-44,13.3-54.3,32.7c-9.3-16.5-25.8-28.3-45.2-31.3c-5.8-72.6-66.6-129.7-140.6-129.7
		c-11.7,0-23.1,1.4-34,4.1c-1.4-25-22.1-44.8-47.4-44.8c-2.5,0-4.9,0.2-7.3,0.6c0.3-2.8,0.5-5.8,0.5-8.7c0-42-34-76-76-76
		c-14.5,0-28,4-39.5,11.1c-17.1-19.5-42.1-31.7-70.1-31.7c-51.5,0-93.3,41.8-93.3,93.3c0,1.9,0.1,3.8,0.2,5.6
		c-2.9-0.6-5.9-0.9-9-0.9c-23.7,0-43.2,17.9-45.8,40.9c-6.1-1-12.3-1.6-18.6-1.6c-54.9,0-100.5,39.5-110.1,91.6
		C789.3,231.5,776.4,223.5,762,218.9z"/>
	<path class="st0" d="M2118.7,469.1V326H762v328.9c17.4,5.4,35.8,8.3,54.9,8.3c92.2,0,168.7-67.2,183.3-155.2
		c17.4-4.4,33.5-12.3,47.4-22.9c14.7,8,31.5,12.6,49.4,12.6c43.9,0,81.4-27.5,96.2-66.1c26.7-2.5,49-19.9,58.7-43.7
		c10.5,8.5,23.9,13.5,38.4,13.5c23.6,0,44-13.3,54.3-32.7c9.3,16.5,25.8,28.3,45.2,31.3c5.8,72.6,66.6,129.7,140.6,129.7
		c11.7,0,23.1-1.4,34-4.1c1.4,25,22.1,44.8,47.4,44.8c2.5,0,4.9-0.2,7.3-0.6c-0.3,2.8-0.5,5.8-0.5,8.7c0,42,34,76,76,76
		c14.5,0,28-4,39.5-11.1c17.1,19.5,42.1,31.7,70.1,31.7c51.5,0,93.3-41.8,93.3-93.3c0-1.9-0.1-3.8-0.2-5.6c2.9,0.6,5.9,0.9,9,0.9
		c23.7,0,43.2-17.9,45.8-40.9c6.1,1,12.3,1.6,18.6,1.6c54.9,0,100.5-39.5,110.1-91.6C2091.4,456.5,2104.3,464.5,2118.7,469.1z"/>
	<circle class="st0" cx="290" cy="398" r="290"/>
	<circle class="st0" cx="602" cy="450" r="290"/>
	<circle class="st0" cx="2181" cy="290" r="290"/>
	<circle class="st0" cx="2493" cy="342" r="290"/>
</g>
</svg>
