<?xml version="1.0" encoding="utf-8"?>
<!-- Generator: Adobe Illustrator 22.1.0, SVG Export Plug-In . SVG Version: 6.00 Build 0)  -->
<svg version="1.1" id="Layer_1" xmlns="http://www.w3.org/2000/svg" xmlns:xlink="http://www.w3.org/1999/xlink" x="0px" y="0px"
	 viewBox="0 0 692.8 521.4" style="enable-background:new 0 0 692.8 521.4;" xml:space="preserve">
<style type="text/css">
	.st0{fill-rule:evenodd;clip-rule:evenodd;fill:#FFAB17;}
	.st1{fill-rule:evenodd;clip-rule:evenodd;fill:#8DC63F;}
	.st2{fill-rule:evenodd;clip-rule:evenodd;fill:#FF5370;}
	.st3{fill-rule:evenodd;clip-rule:evenodd;fill:#27AAE1;}
	.st4{fill-rule:evenodd;clip-rule:evenodd;fill:#27C087;}
	.st5{fill-rule:evenodd;clip-rule:evenodd;fill:#9E1F63;}
	.st6{fill-rule:evenodd;clip-rule:evenodd;fill:#ED1C24;}
</style>
<g>
	<path class="st0" d="M473.5,6.2c-2.2,0.4-4.4,0.9-6.6,3.3c-0.4-2.2-0.9-4.4-3.3-6.6C468-3,473.6,1.2,473.5,6.2z"/>
	<path class="st0" d="M304.9,238.4c4.1,2.8,3.2,5.5,4.9,8.2c-3.3,2.5-6.6,0.9-9.9-3.3C301.6,241.7,303.3,240.1,304.9,238.4z"/>
	<path class="st0" d="M618.4,247.2c-4.9,0.4-5.9-2.3-9-3.3c1.4-1.7,2.8-3.5,3.1-6.7C618.7,237.1,619.7,241.2,618.4,247.2z"/>
	<path class="st1" d="M634.3,403.4c-4.9,0.4-6-2.3-9-3.3c1.4-1.7,2.8-3.5,3.1-6.7C634.5,393.4,635.6,397.5,634.3,403.4z"/>
	<path class="st1" d="M79.6,158.2c-4.9,0.4-5.9-2.3-9-3.3c1.4-1.7,2.8-3.5,3.1-6.7C79.9,148.2,81,152.3,79.6,158.2z"/>
	<path class="st0" d="M191.5,182.9c-6-0.5-1.9-2.2-6.6-6.6C190,168.6,199.1,177.8,191.5,182.9z"/>
	<path class="st2" d="M692.8,252.1c-2.2,0.4-4.4,0.9-6.6,3.3c-0.4-2.2-0.9-4.4-3.3-6.6C687.3,242.9,692.9,247,692.8,252.1z"/>
	<path class="st3" d="M557.1,265.6c4.1,2.8,3.2,5.5,4.9,8.2c-3.3,2.5-6.6,0.9-9.9-3.3C553.8,268.9,555.4,267.2,557.1,265.6z"/>
	<path class="st2" d="M528.8,362.6c4.1,2.8,3.2,5.5,4.9,8.2c-2.2,0.4-4.4,0.9-6.6,3.3C522.3,370.3,524,366.4,528.8,362.6z"/>
	<path class="st3" d="M4.6,171.3c4.1,2.8,3.2,5.5,4.9,8.2c-2.2,0.4-4.4,0.9-6.6,3.3C-2,179-0.2,175.1,4.6,171.3z"/>
	<path class="st2" d="M549.9,443.3c-4.3-4.7-6.1-0.6-6.6-6.6C548.4,429.1,557.6,438.3,549.9,443.3z"/>
	<path class="st1" d="M364.1,49.8c-4.3-4.7-6.1-0.6-6.6-6.6C362.6,35.6,371.8,44.8,364.1,49.8z"/>
	<path class="st2" d="M369,406.5c-6-0.5-1.9-2.2-6.6-6.6C367.5,392.3,376.7,401.5,369,406.5z"/>
	<path class="st4" d="M221,119.4c2.2-0.4,4.4-0.9,6.6-3.3c0.4,2.2,0.9,4.4,3.3,6.6C226.4,128.6,220.8,124.4,221,119.4z"/>
	<path class="st3" d="M301.7,165.8c-4.1-2.8-3.2-5.5-4.9-8.2c3.3-2.5,6.6-0.9,9.9,3.3C305,162.6,303.3,164.2,301.7,165.8z"/>
	<path class="st5" d="M561.1,121.5c-4.1-2.8-3.2-5.5-4.9-8.2c3.3-2.5,6.6-0.9,9.9,3.3C564.4,118.3,562.7,119.9,561.1,121.5z"/>
	<path class="st6" d="M329.7,340.4c-4.1-2.8-3.2-5.5-4.9-8.2c3.3-2.5,6.6-0.9,9.9,3.3C333,337.1,331.4,338.7,329.7,340.4z"/>
	<path class="st3" d="M242.6,490.1c-4.1-2.8-3.2-5.5-4.9-8.2c2.2-0.4,4.4-0.9,6.6-3.3C249.1,482.4,247.3,486.2,242.6,490.1z"/>
	<path class="st4" d="M316.5,421.9c4.3,4.7,6.1,0.6,6.6,6.6C318,436.1,308.9,426.9,316.5,421.9z"/>
	<path class="st4" d="M361.2,225.4c6,0.5,1.9,2.2,6.6,6.6C362.7,239.6,353.5,230.4,361.2,225.4z"/>
	<path class="st4" d="M615.7,322.1c6,0.5,1.9,2.2,6.6,6.6C617.2,336.3,608,327.1,615.7,322.1z"/>
	<path class="st5" d="M441.9,511.9c6,0.5,1.9,2.2,6.6,6.6C443.4,526.1,434.3,516.9,441.9,511.9z"/>
	<path class="st4" d="M80.5,465.6c4.1,2.8,3.2,5.5,4.9,8.2c-3.3,2.5-6.6,0.9-9.9-3.3C77.2,468.8,78.8,467.2,80.5,465.6z"/>
	<path class="st3" d="M251,325.4c-4.9,0.4-5.9-2.3-9-3.3c1.4-1.7,2.8-3.5,3.1-6.7C251.2,315.3,252.3,319.4,251,325.4z"/>
</g>
</svg>
