<?xml version="1.0" encoding="utf-8"?>
<!-- Generator: Adobe Illustrator 22.1.0, SVG Export Plug-In . SVG Version: 6.00 Build 0)  -->
<svg version="1.1" id="Layer_1" xmlns="http://www.w3.org/2000/svg" xmlns:xlink="http://www.w3.org/1999/xlink" x="0px" y="0px"
	 viewBox="0 0 385.3 487.1" style="enable-background:new 0 0 385.3 487.1;" xml:space="preserve">
<style type="text/css">
	.st0{fill-rule:evenodd;clip-rule:evenodd;fill:#FFAB17;}
	.st1{fill-rule:evenodd;clip-rule:evenodd;fill:#8DC63F;}
	.st2{fill-rule:evenodd;clip-rule:evenodd;fill:#27AAE1;}
	.st3{fill-rule:evenodd;clip-rule:evenodd;fill:#FF5370;}
	.st4{fill-rule:evenodd;clip-rule:evenodd;fill:#27C087;}
	.st5{fill-rule:evenodd;clip-rule:evenodd;fill:#9E1F63;}
</style>
<g>
	<path class="st0" d="M339.8,143.9c-2.2,0.4-4.4,0.9-6.6,3.3c-0.4-2.2-0.9-4.4-3.3-6.6C334.3,134.7,340,138.8,339.8,143.9z"/>
	<path class="st0" d="M238.3,189.1c4.1,2.8,3.2,5.5,4.9,8.2c-3.3,2.5-6.6,0.9-9.9-3.3C235,192.4,236.6,190.7,238.3,189.1z"/>
	<path class="st1" d="M9,117.9c-4.9,0.4-5.9-2.3-9-3.3c1.4-1.7,2.8-3.5,3.1-6.7C9.3,107.9,10.3,111.9,9,117.9z"/>
	<path class="st0" d="M120.8,142.5c-6-0.5-1.9-2.2-6.6-6.6C119.3,128.3,128.5,137.5,120.8,142.5z"/>
	<path class="st2" d="M380.4,188.2c4.1,2.8,3.2,5.5,4.9,8.2c-3.3,2.5-6.6,0.9-9.9-3.3C377.1,191.5,378.8,189.9,380.4,188.2z"/>
	<path class="st3" d="M379.2,301.3c4.1,2.8,3.2,5.5,4.9,8.2c-2.2,0.4-4.4,0.9-6.6,3.3C372.6,308.9,374.4,305.1,379.2,301.3z"/>
	<path class="st2" d="M30.9,176c4.1,2.8,3.2,5.5,4.9,8.2c-2.2,0.4-4.4,0.9-6.6,3.3C24.4,183.6,26.1,179.8,30.9,176z"/>
	<path class="st3" d="M46.3,390c-4.3-4.7-6.1-0.6-6.6-6.6C44.8,375.8,53.9,385,46.3,390z"/>
	<path class="st1" d="M293.5,9.5c-4.3-4.7-6.1-0.6-6.6-6.6C292-4.7,301.1,4.5,293.5,9.5z"/>
	<path class="st4" d="M150.3,79.1c2.2-0.4,4.4-0.9,6.6-3.3c0.4,2.2,0.9,4.4,3.3,6.6C155.8,88.3,150.1,84.1,150.3,79.1z"/>
	<path class="st2" d="M231.1,125.5c-4.1-2.8-3.2-5.5-4.9-8.2c3.3-2.5,6.6-0.9,9.9,3.3C234.4,122.2,232.7,123.9,231.1,125.5z"/>
	<path class="st2" d="M171.9,449.7c-4.1-2.8-3.2-5.5-4.9-8.2c2.2-0.4,4.4-0.9,6.6-3.3C178.4,442.1,176.7,445.9,171.9,449.7z"/>
	<path class="st4" d="M245.9,381.6c4.3,4.7,6.1,0.6,6.6,6.6C247.4,395.8,238.3,386.6,245.9,381.6z"/>
	<path class="st4" d="M290.5,185.1c6,0.5,1.9,2.2,6.6,6.6C292,199.3,282.9,190.1,290.5,185.1z"/>
	<path class="st5" d="M275.3,477.6c6,0.5,1.9,2.2,6.6,6.6C276.8,491.8,267.6,482.6,275.3,477.6z"/>
	<path class="st4" d="M67.8,16.2c4.1,2.8,3.2,5.5,4.9,8.2c-3.3,2.5-6.6,0.9-9.9-3.3C64.5,19.5,66.2,17.9,67.8,16.2z"/>
</g>
</svg>
