<?xml version="1.0" encoding="utf-8"?>
<!-- Generator: Adobe Illustrator 22.1.0, SVG Export Plug-In . SVG Version: 6.00 Build 0)  -->
<svg version="1.1" id="Layer_1" xmlns="http://www.w3.org/2000/svg" xmlns:xlink="http://www.w3.org/1999/xlink" x="0px" y="0px"
	 viewBox="0 0 360.7 285.5" style="enable-background:new 0 0 360.7 285.5;" xml:space="preserve">
<style type="text/css">
	.st0{fill:#39273B;}
	.st1{fill:#F6921E;}
	.st2{fill:#EDEDED;}
</style>
<g>
	<g>
		<path class="st0" d="M358.9,257.2c-31.3-13.4-63.3-22.7-94.9-27.6c-1.7-0.2-3.2,0.9-3.5,2.5c-0.3,1.7,0.9,3.2,2.5,3.5
			c31.2,4.8,62.6,14,93.5,27.2c0.4,0.2,0.8,0.2,1.2,0.2c1.2,0,2.3-0.7,2.8-1.8C361.1,259.7,360.4,257.9,358.9,257.2z"/>
		<path class="st0" d="M239.7,226.7c-8.8-0.7-17.7-1.2-26.4-1.2c0,0,0,0,0,0c-1.7,0-3,1.3-3.1,3c0,1.7,1.3,3.1,3,3.1
			c8.6,0.1,17.3,0.5,26,1.2c0.1,0,0.2,0,0.3,0c1.6,0,2.9-1.2,3-2.8C242.6,228.3,241.4,226.8,239.7,226.7z"/>
		<path class="st0" d="M129.8,238.4c-0.4-1.6-2.1-2.6-3.7-2.2c-34.6,9.2-54.4,20.7-55.2,21.2c-1.4,0.9-1.9,2.7-1.1,4.2
			c0.6,1,1.6,1.5,2.6,1.5c0.5,0,1.1-0.1,1.6-0.4c0.2-0.1,19.9-11.6,53.7-20.6C129.3,241.7,130.3,240,129.8,238.4z"/>
	</g>
	<g>
		<rect x="282.7" y="64.2" transform="matrix(0.707 -0.7072 0.7072 0.707 35.9129 221.571)" class="st1" width="5.3" height="6.5"/>
		<rect x="271.9" y="75" transform="matrix(0.707 -0.7072 0.7072 0.707 25.1233 217.1027)" class="st1" width="5.3" height="6.5"/>
		<path class="st1" d="M278.4,97.1c-0.7,0-1.4-0.3-1.9-0.8l-4.6-4.6c-0.6-0.6-0.9-1.5-0.7-2.4l1.5-7.7c0.1-0.5,0.4-1,0.7-1.4
			l4.6-4.6l3.8,3.8l-4.1,4.1l-1.1,5.5l1.7,1.7l19.4-19.4l-1.7-1.7l-5.5,1.1l-4.1,4.1l-3.8-3.8l4.6-4.6c0.4-0.4,0.8-0.6,1.4-0.7
			l7.7-1.5c0.9-0.2,1.8,0.1,2.4,0.7l4.6,4.6c0.5,0.5,0.8,1.2,0.8,1.9s-0.3,1.4-0.8,1.9l-23.1,23.1C279.8,96.8,279.1,97.1,278.4,97.1
			z"/>
		<path class="st1" d="M264,27.2l-3.8-3.8c2.7-2.7,5.1-6.6,1.5-10.1L256,7.5l-5.8,5.8l-3.8-3.8L256,0l9.6,9.6
			C269.5,13.5,271.1,20.1,264,27.2z"/>
		<path class="st1" d="M254.1,61.1c-1.4-1.4-4-1.2-8.1-0.6c-5.5,0.7-12.4,1.7-18.1-4l-17.3-17.3l34.6-34.6l17.3,17.3
			c5.7,5.7,4.8,12.6,4,18.1c-0.5,4.1-0.8,6.7,0.6,8.1l-3.8,3.8c-3.3-3.3-2.7-8-2.1-12.6c0.7-5,1.3-9.8-2.5-13.6l-13.5-13.5
			l-27.1,27.1l13.5,13.5c3.8,3.8,8.6,3.2,13.6,2.5c4.5-0.6,9.2-1.2,12.6,2.1L254.1,61.1z"/>
		<g>
			<path class="st2" d="M175.5,76.5c11.3,0,20.5-6.1,20.5-13.5c0-6.7-7.5-10.5-20.5-10.5c-13,0-20.5,3.8-20.5,10.5
				C155,70.4,164.2,76.5,175.5,76.5z"/>
			<path class="st2" d="M279.1,50.8L278,50c-2.7-2.2-6-3.3-9.5-3c-3.5,0.3-6.6,1.9-8.9,4.6l-3,3.6c0,0,0,0.1-0.1,0.1c0,0,0,0,0,0
				C247.8,67,234,72.3,222.4,74.6V60.4c0-6.2-5.1-11.3-11.4-11.3h-4.8c-5-12-16.9-20.5-30.8-20.5c-13.9,0-25.8,8.5-30.8,20.5h-3.2
				V36.5c0-1.6-1.3-2.8-2.8-2.8c-1.6,0-2.8,1.3-2.8,2.8v13.1c-4.6,1.5-7.9,5.7-7.9,10.7v33.1c0,0.2,0.1,0.3,0.1,0.4
				c-6.6,8.5-10.4,19-10.4,30.1v51.4v5.6v1.9c0,7.2,5.9,13,13,13h1.4c2.7,0,5.3-0.9,7.4-2.3v65.1c-0.5,0-1-0.1-1.4-0.1
				c-10.4,0-18.9,8.4-18.9,18.8c0,4.4,3.6,8,8.1,8h42.6c1.6,0,2.8-1.3,2.8-2.8v-21.1V217c0-1.4,1.2-2.6,2.6-2.6
				c1.4,0,2.6,1.1,2.6,2.6v44.5v2.5v18.6c0,1.6,1.3,2.8,2.8,2.8h42.6c4.5,0,8.1-3.6,8.1-8c0-10.3-8.5-18.8-18.9-18.8
				c-0.3,0-0.6,0-0.9,0v-80.5h-0.1c0-0.1,0.1-0.2,0.1-0.3v-12.5c6.1-0.2,10.9-5.2,10.9-11.2v-48.3c35.1-6.3,54-31.3,55.3-33.1l3-3.6
				c2.2-2.7,3.3-6.1,3-9.5C283.4,56.2,281.7,53.1,279.1,50.8z M208.8,61.6c0-2.3-0.3-4.6-0.7-6.8h3c3.2,0,5.7,2.5,5.7,5.6v15.2
				c-4.8,0.6-8.9,0.8-11.6,0.8C207.4,71.9,208.8,66.9,208.8,61.6z M175.5,34.2c15.2,0,27.6,12.3,27.6,27.3s-12.4,27.3-27.6,27.3
				c-15.2,0-27.6-12.3-27.6-27.3S160.2,34.2,175.5,34.2z M133.6,60.4c0-3.1,2.6-5.6,5.7-5.6h3.6c-0.5,2.2-0.7,4.5-0.7,6.8
				c0,6.3,1.9,12.3,5,17.3c-5.1,2.3-9.7,5.3-13.6,9V60.4z M132,190.3h-1.4c-4.1,0-7.4-3.3-7.4-7.4v-1.9h16.2v1.9
				C139.4,187,136.1,190.3,132,190.3z M216.8,154.2c0,2.9-2.3,5.3-5.3,5.6v-43.7c0-3.7,2.1-7,5.3-8.6V154.2z M219.1,100.8
				c-7.7,1.2-13.3,7.6-13.3,15.3v61.8c0,0.1,0.1,0.2,0.1,0.3h-0.1v81.3c-4.1,1.1-7.8,3.3-10.8,6.4c-1.1,1.1-1.1,2.9,0.1,4
				c0.5,0.5,1.3,0.8,2,0.8c0.7,0,1.5-0.3,2-0.9c3.5-3.6,8.3-5.6,13.4-5.6c7.3,0,13.3,5.9,13.3,13.1c0,1.3-1.1,2.4-2.4,2.4h-39.8
				v-15.5h6c1.6,0,2.8-1.3,2.8-2.8s-1.3-2.8-2.8-2.8h-6V217c0-4.5-3.7-8.2-8.3-8.2c-4.6,0-8.3,3.7-8.3,8.2v41.6h-6
				c-1.6,0-2.8,1.3-2.8,2.8s1.3,2.8,2.8,2.8h6v15.5h-39.8c-1.3,0-2.4-1.1-2.4-2.4c0-7.2,6-13.1,13.3-13.1c5.1,0,9.8,2,13.4,5.6
				c0.6,0.6,1.3,0.9,2,0.9c0.7,0,1.4-0.3,2-0.8c1.1-1.1,1.1-2.9,0.1-4c-2.9-3-6.4-5.1-10.3-6.3v-76.8v-4.7v-2.8v-46.8
				c0-1.6-1.3-2.8-2.8-2.8c-1.6,0-2.8,1.3-2.8,2.8v46.8h-16.2V124c0-17.7,11-33.8,27.4-40.6c6.1,6.7,14.9,11,24.8,11
				c10.6,0,20-4.9,26.1-12.5c0.6,0,1.7,0.1,3.3,0.1c10.1,0,38-1.9,54.3-21.1l12.4,10.4C266.3,77.6,248.3,96.4,219.1,100.8z
				 M276.4,65.6l-1.2,1.4l-12.4-10.4l1.2-1.4c1.3-1.5,3.1-2.4,5-2.6c2-0.2,3.9,0.4,5.4,1.7l0,0l1.1,0.9
				C278.6,57.8,279,62.5,276.4,65.6z"/>
			<path class="st2" d="M190,108.3h-29.1c-4.2,0-7.6,3.4-7.6,7.6v18c0,4.2,3.4,7.6,7.6,7.6H190c4.2,0,7.6-3.4,7.6-7.6v-18
				C197.6,111.7,194.2,108.3,190,108.3z M192,133.9c0,1.1-0.9,2-2,2h-29.1c-1.1,0-2-0.9-2-2v-18c0-1.1,0.9-2,2-2H190
				c1.1,0,2,0.9,2,2V133.9z"/>
		</g>
		<path class="st1" d="M223.3,62.9c-3.1,0-5.7-1.4-7.7-3.3L206,50l9.6-9.6l3.8,3.8l-5.8,5.8l5.8,5.8c3.5,3.5,7.5,1.1,10.1-1.5
			l3.8,3.8C229.7,61.6,226.3,62.9,223.3,62.9z"/>
	</g>
</g>
<g>
	<polygon class="st0" points="33.1,51.5 28.6,47 32.1,43.5 34.6,45.9 41.1,44.3 42.7,37.9 40.2,35.4 43.7,31.9 48.2,36.3 45.2,48.4 
			"/>
	<rect x="43.5" y="45.2" transform="matrix(0.707 -0.7072 0.7072 0.707 -21.3701 46.9767)" class="st0" width="5" height="8.2"/>
	<polygon class="st0" points="21.5,63.1 17,58.6 20.5,55 23,57.5 29.5,55.9 31.4,48.1 36.3,49.3 33.6,60 	"/>
	<path class="st0" d="M30.4,75.6c-7.9,0-15.7-3.1-21.5-8.9l3.5-3.5c7,7,17.6,9.3,26.9,5.8l1.8,4.7C37.6,75,34,75.6,30.4,75.6z"/>
	<path class="st0" d="M59.4,54.1l-4.8-1.5c2.7-9,0.3-18.7-6.3-25.3l3.5-3.5C59.8,31.7,62.7,43.3,59.4,54.1z"/>
	<rect x="45" y="32.6" transform="matrix(0.9286 -0.3711 0.3711 0.9286 -9.4241 21.2305)" class="st0" width="10.8" height="5"/>
	<rect x="15.1" y="63" transform="matrix(0.3118 -0.9502 0.9502 0.3118 -48.0522 64.5769)" class="st0" width="10.9" height="5"/>
	<polygon class="st0" points="28.6,47 24.1,42.5 27.1,30.4 39.2,27.4 43.7,31.9 40.2,35.4 37.7,32.9 31.3,34.5 29.7,41 32.1,43.5 	
		"/>
	<polygon class="st0" points="15.8,45.8 9,39 12.1,26.9 24.2,23.9 31,30.7 27.4,34.2 22.6,29.4 16.2,31.1 14.6,37.5 19.4,42.3 	"/>
	<polygon class="st0" points="17,58.6 12.5,54.1 15.5,42 26.3,39.3 27.5,44.2 19.7,46.1 18.1,52.6 20.5,55 	"/>
	<path class="st0" d="M8.9,66.7C-3,54.9-3,35.6,8.9,23.7c11.8-11.8,31.1-11.8,43,0l-3.5,3.5c-9.9-9.9-26-9.9-35.9,0
		c-9.9,9.9-9.9,26,0,35.9L8.9,66.7z"/>
	<rect x="35.1" y="22.6" transform="matrix(0.3711 -0.9286 0.9286 0.3711 2.1209 53.3973)" class="st0" width="10.8" height="5"/>
	<rect x="19.9" y="19.7" transform="matrix(0.2238 -0.9746 0.9746 0.2238 -2.7051 41.0583)" class="st0" width="9.1" height="5"/>
	<rect x="2.7" y="36.9" transform="matrix(0.9683 -0.2496 0.2496 0.9683 -9.6065 3.0806)" class="st0" width="9.2" height="5"/>
	<rect x="4.7" y="52.5" transform="matrix(0.9502 -0.3118 0.3118 0.9502 -16.6533 5.9)" class="st0" width="10.9" height="5"/>
	<rect x="9.9" y="24.8" transform="matrix(0.7071 -0.7071 0.7071 0.7071 -15.6412 16.7427)" class="st0" width="5" height="4.9"/>
	<rect x="44.7" y="51.4" transform="matrix(0.7071 -0.7071 0.7071 0.7071 -30.0491 51.5288)" class="st0" width="5" height="21.3"/>
	<rect x="56.3" y="51.4" transform="matrix(0.7071 -0.7071 0.7071 0.7071 -26.6528 59.7277)" class="st0" width="5" height="21.3"/>
	<rect x="46.4" y="60.6" transform="matrix(0.7071 -0.7071 0.7071 0.7071 -38.9675 56.6614)" class="st0" width="5" height="29.5"/>
	<rect x="31.3" y="57" transform="matrix(0.7071 -0.7071 0.7071 0.7071 -32.7247 41.5884)" class="st0" width="5" height="6.6"/>
</g>
</svg>
