<?xml version="1.0" encoding="utf-8"?>
<!-- Generator: Adobe Illustrator 22.1.0, SVG Export Plug-In . SVG Version: 6.00 Build 0)  -->
<svg version="1.1" id="Isolation_Mode" xmlns="http://www.w3.org/2000/svg" xmlns:xlink="http://www.w3.org/1999/xlink" x="0px"
	 y="0px" viewBox="0 0 377.2 365.6" style="enable-background:new 0 0 377.2 365.6;" xml:space="preserve">
<style type="text/css">
	.st0{fill:#F6921E;}
	.st1{fill:#250629;}
</style>
<g>
	<path class="st0" d="M116.6,19.3l-3.9-3.9l-3.9,3.9c-0.7,0.7-1.7,1.1-2.6,1.1c-0.9,0-1.9-0.4-2.6-1.1c-1.4-1.4-1.4-3.8,0-5.2
		l3.9-3.9l-3.9-3.9c-1.4-1.4-1.4-3.8,0-5.2c1.4-1.4,3.8-1.4,5.2,0l3.9,3.9l3.9-3.9c1.4-1.4,3.8-1.4,5.2,0c1.4,1.4,1.4,3.8,0,5.2
		l-3.9,3.9l3.9,3.9c1.4,1.4,1.4,3.8,0,5.2c-0.7,0.7-1.7,1.1-2.6,1.1C118.3,20.4,117.3,20.1,116.6,19.3z"/>
	<path class="st0" d="M351.3,210h5.5v-5.5c0-2,1.7-3.7,3.7-3.7s3.7,1.7,3.7,3.7v5.5h5.5c2.1,0,3.7,1.7,3.7,3.7c0,2-1.7,3.7-3.7,3.7
		h-5.5v5.5c0,2-1.7,3.7-3.7,3.7s-3.7-1.7-3.7-3.7v-5.5h-5.5c-2.1,0-3.7-1.7-3.7-3.7C347.6,211.6,349.2,210,351.3,210z"/>
	<path class="st0" d="M116.9,206.7c2.1,0,3.8,1.7,3.8,3.8c0,2.1-1.7,3.8-3.8,3.8c-2.1,0-3.8-1.7-3.8-3.8
		C113.2,208.4,114.8,206.7,116.9,206.7z"/>
	<path class="st0" d="M346.6,136c2.1,0,3.8,1.7,3.8,3.8c0,2.1-1.7,3.8-3.8,3.8c-2.1,0-3.8-1.7-3.8-3.8
		C342.8,137.7,344.5,136,346.6,136z"/>
	<path class="st1" d="M3.8,340.5c2.1,0,3.8,1.7,3.8,3.8c0,2.1-1.7,3.8-3.8,3.8c-2.1,0-3.8-1.7-3.8-3.8C0,342.2,1.7,340.5,3.8,340.5z
		"/>
	<path class="st1" d="M373.4,322.7c2.1,0,3.8,1.7,3.8,3.8c0,2.1-1.7,3.8-3.8,3.8c-2.1,0-3.8-1.7-3.8-3.8
		C369.7,324.4,371.4,322.7,373.4,322.7z"/>
	<path class="st0" d="M234.8,251.7c28.3,0,51.3,23,51.3,51.3v58.9c0,2-1.7,3.7-3.7,3.7c-2.1,0-3.7-1.7-3.7-3.7V303
		c0-24.2-19.7-43.9-43.9-43.9c-24.2,0-43.9,19.7-43.9,43.9v58.9c0,2-1.7,3.7-3.7,3.7c-2.1,0-3.7-1.7-3.7-3.7V303
		C183.5,274.7,206.5,251.7,234.8,251.7z"/>
	<path class="st0" d="M202.5,314.1v24.6c0,5.1,4.1,9.2,9.2,9.2h46c5.1,0,9.2-4.1,9.2-9.2v-24.6c0-5.1-4.1-9.2-9.2-9.2h-46
		C206.7,304.9,202.5,309.1,202.5,314.1z M210,314.1c0-1,0.8-1.8,1.8-1.8h46c1,0,1.8,0.8,1.8,1.8v24.6c0,1-0.8,1.8-1.8,1.8h-46
		c-1,0-1.8-0.8-1.8-1.8V314.1z"/>
	<path class="st0" d="M117,312.1v49.8c0,2,1.7,3.7,3.7,3.7s3.7-1.7,3.7-3.7v-21.2h25.7c8.5,0,15.4-6.9,15.4-15.4v-34.7
		c0-8.5-6.9-15.4-15.4-15.4h-18.6c6.1-15.2,16-28.7,29.2-39.4c1.6,1.4,3.7,2.2,6,2.2h110c2.7,0,5.1-1.1,6.8-2.9
		c23.6,18.8,37.1,46.7,37.1,76.9v49.8c0,2,1.7,3.7,3.7,3.7s3.7-1.7,3.7-3.7v-49.8c0-32.6-14.7-62.9-40.4-83.1
		c-0.4-0.3-0.9-0.6-1.4-0.7v-5.8c0-3.7-2.2-6.9-5.3-8.5c21.3-17.2,33.7-43.1,33.7-70.9c0-50.2-40.5-91-90.4-91
		c-26.2,0-51.1,11.5-68.3,31.4c-1.3,1.6-1.2,3.9,0.4,5.2l4.3,3.7c-11.6,14.3-18.1,32.1-18.1,50.6c0,18.5,6.4,36.4,18.1,50.6
		l-4.3,3.7c-0.8,0.7-1.2,1.6-1.3,2.7c0,1,0.4,2,1.1,2.8c0.3,0.3,5.3,5.3,10.7,10.1h-0.1c-5.2,0-9.5,4.3-9.5,9.5v6.1
		c0,0.2,0,0.4,0.1,0.6C131.7,249.4,117,279.4,117,312.1z M221.8,89.1c0-1.6,1.3-2.9,2.9-2.9c1.6,0,2.9,1.3,2.9,2.9
		c0,1.6-1.3,2.9-2.9,2.9C223.1,92.1,221.8,90.7,221.8,89.1z M238,143.2c0,7.6-6.2,13.9-13.7,13.9c-7.6,0-13.7-6.2-13.7-13.9
		s6.2-13.9,13.7-13.9C231.8,129.3,238,135.5,238,143.2z M224.2,121.9c-0.4,0-0.8,0-1.2,0.1l1.7-20.5l1.7,20.5
		C225.7,121.9,225,121.9,224.2,121.9z M269.9,213L269.9,213l-91.1,0c-4.6-3.2-10.9-9-14.5-12.5l47-40.6c3.6,2.8,8.1,4.6,13,4.6
		c11.7,0,21.2-9.6,21.2-21.3c0-8.2-4.6-15.3-11.4-18.9l-2.3-27.7c2-1.9,3.3-4.6,3.3-7.5c0-5.7-4.6-10.4-10.3-10.4
		c-5.7,0-10.3,4.6-10.3,10.4c0,3,1.3,5.6,3.3,7.5l-2.2,27.2c-1.5,0.7-2.9,1.6-4.2,2.6L164,85.6c15.6-16.6,37.4-26.1,60.2-26.1
		c45.7,0,83,37.5,83,83.6C307.2,171.3,293.3,197.5,269.9,213z M164.6,228.6v-6.1c0-1.2,0.9-2.1,2.1-2.1h110c1.2,0,2.1,0.9,2.1,2.1
		v6.1c0,1.2-0.9,2.1-2.1,2.1h-110C165.6,230.7,164.6,229.8,164.6,228.6z M124.4,333.3v-21.2c0-10.1,1.5-20,4.5-29.4h21.2
		c4.4,0,7.9,3.6,7.9,7.9v34.7c0,4.4-3.6,7.9-7.9,7.9H124.4z"/>
</g>
</svg>
