<?xml version="1.0" encoding="utf-8"?>
<!-- Generator: Adobe Illustrator 22.1.0, SVG Export Plug-In . SVG Version: 6.00 Build 0)  -->
<svg version="1.1" id="Layer_1" xmlns="http://www.w3.org/2000/svg" xmlns:xlink="http://www.w3.org/1999/xlink" x="0px" y="0px"
	 viewBox="0 0 158.4 397.8" style="enable-background:new 0 0 158.4 397.8;" xml:space="preserve">
<style type="text/css">
	.st0{fill:#EE9635;}
	.st1{fill:#E0772F;}
	.st2{fill:#D75E2A;}
	.st3{opacity:0.5;fill:#FDB024;}
	.st4{fill:#7F302E;}
	.st5{fill:#FFAB17;}
	.st6{fill:#F9A02C;}
	.st7{fill:#FDB024;}
	.st8{fill:#AA381D;}
	.st9{opacity:0.4;fill:#FFFFFF;}
	.st10{fill:#F8A76A;}
	.st11{fill:#F58957;}
	.st12{fill:#FFFFFF;}
	.st13{fill:#2C1C05;}
</style>
<g>
	<g>
		<g>
			<polygon class="st0" points="106.8,319.1 87.8,280.2 69,280.2 51.1,319.1 			"/>
			<polygon class="st1" points="69.9,280.1 88.6,280.1 97.6,164.9 60.7,164.9 			"/>
			<path class="st2" d="M50.8,317.1l56.8,0c8.2,0,14.9,6.7,14.9,14.9l-86.6,0C35.9,323.8,42.6,317.1,50.8,317.1z"/>
			<path class="st3" d="M101.8,333l16.7-0.1c0-8.8-7.1-15.9-15.9-15.9l-14.1,0.1C95.8,319,101.2,325.4,101.8,333z"/>
			<rect x="28.3" y="329.6" class="st4" width="101.3" height="51.7"/>
			<g>
				<path class="st5" d="M57.1,356.7c0,5.3,4.5,9.7,10,9.7l23.7,0c5.5,0,10-4.4,10-9.7c0-5.3-4.5-9.7-10-9.7l-23.7,0
					C61.6,347,57.1,351.4,57.1,356.7z"/>
			</g>
			<path class="st6" d="M54.2,164.9c0,4.5,3.7,8.2,8.2,8.2l33.5,0c4.5,0,8.2-3.7,8.2-8.2l0,0c0-4.5-3.7-8.2-8.2-8.2l-33.5,0
				C57.9,156.7,54.2,160.4,54.2,164.9L54.2,164.9z"/>
			<path class="st0" d="M57.1,272.8c0,12.2,9.8,22,22,22c12.2,0,22-9.8,22-22c0-12.2-9.8-22-22-22C67,250.8,57.1,260.7,57.1,272.8z"
				/>
			<path class="st1" d="M64.3,289.1l0.3-0.1l28.1,0.8l0.4,0.1c1-0.8,1.9-1.7,2.8-2.7c0-0.1-0.1-0.2-0.1-0.2s-10.1,4.6-20.7-3.8
				c-10.7-8.4-10.8-20.1-7.3-24.9c0,0,2.7-4.7,2.9-5.9c-7.9,3.3-13.5,11.2-13.5,20.3C57.1,279.3,59.8,285.1,64.3,289.1z"/>
			<g>
				<g>
					<g>
						<path class="st7" d="M70,157.9c-19-2.2-35.9-11.1-48.4-24.3l-1.2-20.4L2.5,98.9C1,93,0.1,86.9,0,80.5
							C-0.2,69.4,2,58.8,5.9,49.1l25-12.3L41.4,9.6C52.3,3.7,64.7,0.2,77.9,0c4.5-0.1,9,0.3,13.3,0.9l18.1,20.9l27.7,3.3
							c11.5,12.3,19.2,28.3,21,46.1l-13.3,20.5l5,23.6c-8.5,16.5-22.6,29.7-39.8,37l-22.1-4L70,157.9z"/>
						<path class="st1" d="M35.8,12.6c-9,12.8-14.2,28.5-14.2,45.3c0,43.9,35.5,79.5,79.4,79.5c16.2,0,31.2-4.8,43.7-13.1
							c-14.4,20.6-38.3,34.1-65.3,34.1C35.5,158.4,0,122.8,0,78.9C0,51.2,14.3,26.8,35.8,12.6z"/>
						<path class="st8" d="M109.9,152.3c-9.1,3.8-19,6-29.4,6.2c-3.6,0.1-7.1-0.1-10.5-0.5l16.4-8.9l-6.2-27.5l-37.4-18l-21,13
							l-0.3,17C12.5,124,5.9,112.1,2.5,98.9L20.1,113l19.8-13.7l6.4-42.9l-18.6-17L5.9,49.1c6.9-16.9,19.6-30.9,35.5-39.5L30.9,36.8
							l-0.3,0.1l20,13.7l44.1-7.9l13.8-21.9L91.3,0.9c17.9,2.7,33.9,11.5,45.8,24.2l-27.3-3.2L99,45.5l20.6,42l25.2,4.6l-0.1-0.5
							L158,71.2c0.2,2.2,0.4,4.5,0.4,6.7c0.2,13.4-2.9,26.1-8.7,37.3l-4.6-21.5l-26.9-1.5l-31,27.6l-1.4,1.4l3.5,26.9L109.9,152.3z"
							/>
					</g>
				</g>
			</g>
			<g>
				<path class="st1" d="M62.4,156.7l33.5,0c4.5,0,8.2,3.7,8.2,8.2c0,0,0,0,0,0l-49.8-0.1C54.2,160.4,57.9,156.7,62.4,156.7z"/>
			</g>
			<path class="st9" d="M95.6,119.9c17.8,2.8,34-3.6,44.3-15.7c-0.2,0.1-0.3,0.1-0.5,0.2c1.6-1.8,3-3.8,4.3-5.8
				c4.3-6.9,7-15.2,7.4-24.4c0.1-1.6,0.1-3.1,0-4.6c-0.4-12.3-4.9-24.1-12.1-33.9c-7.4-10-17.8-17.8-29.7-21.8
				c-2.9-1-5.9-1.7-8.9-2.2c-8.9-1.4-17.4-0.5-24.9,2.3c-1.4,0.5-2.9,1.1-4.2,1.8c0.1-0.1,0.2-0.3,0.3-0.4
				c-14.8,7-25.3,21.6-26.8,40c0,0.3,0,0.5-0.1,0.8c0,0.1,0,0.1,0,0.2c0,0.1,0,0.3,0,0.4c0,0.2,0,0.5,0,0.7c0,0.1,0,0.2,0,0.3
				c0,0,0,0.1,0,0.1c-0.2,4.2,0.2,8.4,0.9,12.4l0,0l0,0l0,0c1.7,9.4,5.7,18.3,11.3,25.8c7.4,9.9,17.7,17.6,29.5,21.6
				c0.2,0.1,0.3,0.1,0.5,0.2c0.2,0.1,0.4,0.1,0.6,0.2c0.3,0.1,0.6,0.2,0.9,0.3c0,0,0,0,0,0l0,0l0,0l0,0c0,0,0,0,0,0
				c1.7,0.5,3.4,0.9,5.1,1.3c0.1,0,0.2,0,0.3,0.1c0.3,0.1,0.5,0.1,0.8,0.1c0.2,0,0.4,0.1,0.6,0.1c0.1,0,0.1,0,0.2,0
				C95.5,119.9,95.5,119.9,95.6,119.9z"/>
		</g>
		<path class="st10" d="M55.2,285.3"/>
		<polygon class="st11" points="55.2,285.3 55.2,285.3 55.2,285.3 		"/>
	</g>
	<path class="st12" d="M133.9,112.6c-1.2-1.2-1.5-3-0.7-4.6c0.2-0.3,0.3-0.6,0.5-1c4.6-9,6.8-18.7,6.7-28.8c0-1.6-0.1-3.3-0.3-5.2
		c-1-9.4-3.9-18.2-8.9-26.2c-1.1-1.8-0.6-4.2,1.2-5.4c1.8-1.1,4.2-0.6,5.4,1.2c5.6,9,9,18.9,10.1,29.5c0.2,2.1,0.3,4.1,0.4,5.9
		c0.2,11.4-2.3,22.4-7.5,32.5c-0.2,0.4-0.4,0.7-0.6,1.1c-1,1.9-3.4,2.6-5.3,1.6C134.5,113.1,134.1,112.9,133.9,112.6z"/>
	<path class="st12" d="M101.1,21.7c-1.1-1.1-1.5-2.7-0.9-4.2c0.8-2,3.1-3,5.1-2.1c8.5,3.5,16.1,8.6,22.7,15.2c1.5,1.5,1.5,4,0,5.5
		c-1.5,1.5-4,1.5-5.5,0c-5.8-5.9-12.6-10.4-20.1-13.5C101.9,22.4,101.5,22.1,101.1,21.7z"/>
	<rect x="19.4" y="380.9" class="st13" width="118.3" height="16.9"/>
	<polyline class="st7" points="101.4,317.1 89.5,289.8 82.3,289.6 88.4,317.1 	"/>
</g>
</svg>
