<?xml version="1.0" encoding="utf-8"?>
<!-- Generator: Adobe Illustrator 22.1.0, SVG Export Plug-In . SVG Version: 6.00 Build 0)  -->
<svg version="1.1" id="Isolation_Mode" xmlns="http://www.w3.org/2000/svg" xmlns:xlink="http://www.w3.org/1999/xlink" x="0px"
	 y="0px" viewBox="0 0 41.9 41.9" style="enable-background:new 0 0 41.9 41.9;" xml:space="preserve">
<style type="text/css">
	.st0{fill:#250629;}
	.st1{fill:#FFFFFF;}
</style>
<g>
	<path class="st0" d="M41.9,20.9c0,11.6-9.4,20.9-20.9,20.9c-11.6,0-21-9.4-21-20.9C0,9.4,9.4,0,21,0C32.5,0,41.9,9.4,41.9,20.9z"/>
	<g>
		<path class="st1" d="M17.5,34h5.4c0,0,0-7.2,0-13.1h3.7l0.5-4.6h-4.1v-2.7c0-1,0.7-1.3,1.2-1.3s2.9,0,2.9,0V7.9l-4,0
			c-4.5,0-5.5,3.3-5.5,5.5v3h-2.6V21h2.6C17.5,26.9,17.5,34,17.5,34z"/>
	</g>
</g>
</svg>
