<?xml version="1.0" encoding="utf-8"?>
<!-- Generator: Adobe Illustrator 22.1.0, SVG Export Plug-In . SVG Version: 6.00 Build 0)  -->
<svg version="1.1" id="Layer_1" xmlns="http://www.w3.org/2000/svg" xmlns:xlink="http://www.w3.org/1999/xlink" x="0px" y="0px"
	 viewBox="0 0 1356.7 374" style="enable-background:new 0 0 1356.7 374;" xml:space="preserve">
<style type="text/css">
	.st0{fill:#E0EEF2;}
	.st1{fill:#FFFFFF;}
</style>
<circle class="st0" cx="983" cy="148" r="63"/>
<circle class="st0" cx="672" cy="175" r="63"/>
<path class="st1" d="M808,61.5c-106.9,0-193.5,86.6-193.5,193.5c0,44.9,15.3,86.2,40.9,119h305.2c25.6-32.8,40.9-74.1,40.9-119
	C1001.5,148.1,914.9,61.5,808,61.5z"/>
<circle class="st1" cx="544" cy="212" r="123"/>
<path class="st1" d="M228,257c0-71.2-57.8-129-129-129c-39.8,0-75.3,18-99,46.3v165.4c12.1,14.5,27.3,26.2,44.6,34.3h108.8
	C197.4,353.5,228,308.8,228,257z"/>
<path class="st1" d="M1218,263c0-85.9-69.6-155.5-155.5-155.5S907,177.1,907,263c0,43.5,17.9,82.8,46.6,111h217.8
	C1200.1,345.8,1218,306.5,1218,263z"/>
<path class="st1" d="M1301.5,1C1202.9,1,1123,80.9,1123,179.5S1202.9,358,1301.5,358c19.3,0,37.8-3.1,55.2-8.7V9.7
	C1339.3,4.1,1320.8,1,1301.5,1z"/>
<path class="st1" d="M0,180.4V374h2.9C20.1,346.6,30,314.2,30,279.5C30,242.8,18.9,208.8,0,180.4z"/>
<path class="st1" d="M1356.7,282.5c-17.9,26.3-28.9,57.7-30.4,91.5h30.4V282.5z"/>
<path class="st1" d="M314.4,0c-4.6,0-9.2,0.3-13.7,1h27.3C323.6,0.3,319,0,314.4,0z"/>
<path class="st1" d="M1118.4,167.1c-17.4,4.4-33.5,12.3-47.4,22.9c-14.7-8-31.5-12.6-49.4-12.6c-43.9,0-81.4,27.5-96.2,66.1
	c-26.7,2.5-49,19.9-58.7,43.7c-10.5-8.5-23.9-13.5-38.4-13.5c-23.6,0-44,13.3-54.3,32.7c-9.3-16.5-25.8-28.3-45.2-31.3
	c-5.8-72.6-66.6-129.7-140.6-129.7c-11.7,0-23.1,1.4-34,4.1c-1.4-25-22.1-44.8-47.4-44.8c-2.5,0-4.9,0.2-7.3,0.6
	c0.3-2.8,0.5-5.8,0.5-8.7c0-42-34-76-76-76c-14.5,0-28,4-39.5,11.1c-14.3-16.2-34-27.5-56.4-30.7h-27.3c-45,6.6-79.6,45.4-79.6,92.3
	c0,1.9,0.1,3.8,0.2,5.6c-2.9-0.6-5.9-0.9-9-0.9c-23.7,0-43.2,17.9-45.8,40.9c-6.1-1-12.3-1.6-18.6-1.6
	c-54.9,0-100.5,39.5-110.1,91.6C27.3,218.5,14.4,210.5,0,205.9V374h1356.7V20.1c-17.4-5.4-35.8-8.3-54.9-8.3
	C1209.5,11.9,1133,79,1118.4,167.1z"/>
</svg>
