<?xml version="1.0" encoding="utf-8"?>
<!-- Generator: Adobe Illustrator 22.1.0, SVG Export Plug-In . SVG Version: 6.00 Build 0)  -->
<svg version="1.1" id="Layer_1" xmlns="http://www.w3.org/2000/svg" xmlns:xlink="http://www.w3.org/1999/xlink" x="0px" y="0px"
	 viewBox="0 0 2580.2 238" style="enable-background:new 0 0 2580.2 238;" xml:space="preserve">
<style type="text/css">
	.st0{fill:#E0EEF2;}
	.st1{fill:#FFFFFF;}
</style>
<circle class="st0" cx="1541.4" cy="148" r="63"/>
<path class="st0" d="M1230.4,238c7.8,0,15.2-1.4,22.1-4h-44.2C1215.2,236.6,1222.6,238,1230.4,238z"/>
<path class="st0" d="M1293.4,175c0-34.8-28.2-63-63-63s-63,28.2-63,63c0,27,17,50,40.9,59h44.2C1276.4,225,1293.4,202,1293.4,175z"
	/>
<path class="st1" d="M1366.4,61.5c-99.8,0-181.9,75.5-192.4,172.5h384.7C1548.3,137,1466.2,61.5,1366.4,61.5z"/>
<path class="st1" d="M1102.4,89c-67.9,0-123,55.1-123,123c0,7.5,0.7,14.9,2,22h242.1c1.3-7.1,2-14.5,2-22
	C1225.4,144.1,1170.3,89,1102.4,89z"/>
<path class="st1" d="M657.4,128c-63.4,0-116.1,45.7-127,106h253.9C773.5,173.7,720.8,128,657.4,128z"/>
<path class="st1" d="M1620.9,107.5c-76,0-139.2,54.5-152.8,126.5h305.6C1760.1,162,1696.9,107.5,1620.9,107.5z"/>
<path class="st1" d="M1859.9,1c-98.6,0-178.5,79.9-178.5,178.5c0,19,3,37.3,8.5,54.5h340c5.5-17.2,8.5-35.5,8.5-54.5
	C2038.4,80.9,1958.5,1,1859.9,1z"/>
<path class="st1" d="M409.9,101c-82.9,0-152.5,56.5-172.6,133h345.3C562.4,157.5,492.8,101,409.9,101z"/>
<path class="st1" d="M127.9,180C77.7,180,32.4,200.7,0,234h255.8C223.4,200.7,178.1,180,127.9,180z"/>
<path class="st1" d="M1963.8,234H2162c-28.3-18.9-62.4-30-99.1-30S1992.2,215.1,1963.8,234z"/>
<path class="st1" d="M2335.9,0c-7.4,0-14.8,0.4-22,1h44.1C2350.7,0.4,2343.3,0,2335.9,0z"/>
<path class="st1" d="M2357.9,1h-44.1c-121.3,10.8-217,110.2-222.2,233h488.5C2575,111.2,2479.2,11.8,2357.9,1z"/>
<path class="st1" d="M872.8,0c-4.6,0-9.2,0.3-13.7,1h27.3C882,0.3,877.4,0,872.8,0z"/>
<path class="st1" d="M1860.1,11.9c-92.2,0-168.7,67.2-183.3,155.2c-17.4,4.4-33.5,12.3-47.4,22.9c-14.7-8-31.5-12.6-49.4-12.6
	c-40.2,0-75,23-92,56.6h427.1V20.1C1897.7,14.8,1879.2,11.9,1860.1,11.9z"/>
<path class="st1" d="M1146.5,145.5c-11.7,0-23.1,1.4-34,4.1c-1.4-25-22.1-44.8-47.4-44.8c-2.5,0-4.9,0.2-7.3,0.6
	c0.3-2.8,0.5-5.8,0.5-8.7c0-42-34-76-76-76c-14.5,0-28,4-39.5,11.1c-14.3-16.2-34-27.5-56.4-30.7h-27.3c-45,6.6-79.6,45.4-79.6,92.3
	c0,1.9,0.1,3.8,0.2,5.6c-2.9-0.6-5.9-0.9-9-0.9c-23.7,0-43.2,17.9-45.8,40.9c-6.1-1-12.3-1.6-18.6-1.6
	c-54.9,0-100.5,39.5-110.1,91.6c-10.5-10.4-23.4-18.4-37.8-23.1V234h719C1256.6,182.1,1205.8,145.5,1146.5,145.5z"/>
</svg>
