<?xml version="1.0" encoding="utf-8"?>
<!-- Generator: Adobe Illustrator 22.1.0, SVG Export Plug-In . SVG Version: 6.00 Build 0)  -->
<svg version="1.1" id="Isolation_Mode" xmlns="http://www.w3.org/2000/svg" xmlns:xlink="http://www.w3.org/1999/xlink" x="0px"
	 y="0px" viewBox="0 0 77.7 71.9" style="enable-background:new 0 0 77.7 71.9;" xml:space="preserve">
<style type="text/css">
	.st0{fill:none;stroke:#F6921E;stroke-width:3;stroke-linecap:round;stroke-linejoin:round;stroke-miterlimit:10;}
</style>
<g>
	<path class="st0" d="M38.8,70.4c15.2,0,23-3.3,23-3.3s0-22.1,0-27.5c7.4-1.9,11.3-6,14.4-10.5c-1.4-3.2-8.4-18.4-10.8-21
		c-2.3-2.5-13.9-6.4-15-6.6c-1.7-0.3-3.2,4.9-11.5,4.9c-8.3,0-9.8-5.2-11.5-4.9c-1.2,0.2-12.7,4.1-15,6.6c-2.4,2.5-9.5,17.8-10.8,21
		c3.1,4.6,7,8.6,14.4,10.5c0,5.4,0,27.5,0,27.5S23.7,70.4,38.8,70.4"/>
	<line class="st0" x1="15.9" y1="39.2" x2="15.9" y2="32.7"/>
	<line class="st0" x1="61.8" y1="39.2" x2="61.8" y2="32.7"/>
	<line class="st0" x1="33.9" y1="44.1" x2="43.8" y2="44.1"/>
	<polyline class="st0" points="33.9,26.1 38.8,26.1 38.8,44.1 	"/>
</g>
</svg>
