<?xml version="1.0" encoding="utf-8"?>
<!-- Generator: Adobe Illustrator 22.1.0, SVG Export Plug-In . SVG Version: 6.00 Build 0)  -->
<svg version="1.1" id="Isolation_Mode" xmlns="http://www.w3.org/2000/svg" xmlns:xlink="http://www.w3.org/1999/xlink" x="0px"
	 y="0px" viewBox="0 0 41.9 41.9" style="enable-background:new 0 0 41.9 41.9;" xml:space="preserve">
<style type="text/css">
	.st0{fill:#250629;}
	.st1{fill:#FFFFFF;}
</style>
<g>
	<g>
		<path class="st0" d="M41.9,20.9c0,11.6-9.4,20.9-20.9,20.9C9.4,41.9,0,32.5,0,20.9C0,9.4,9.4,0,20.9,0C32.5,0,41.9,9.4,41.9,20.9z
			"/>
	</g>
	<path class="st1" d="M29.5,14c0-0.9-0.7-1.6-1.6-1.6c-0.9,0-1.6,0.7-1.6,1.6c0,0.9,0.7,1.6,1.6,1.6C28.8,15.5,29.5,14.8,29.5,14
		 M20.9,25.3c-2.4,0-4.4-2-4.4-4.4c0-2.4,2-4.4,4.4-4.4c2.4,0,4.4,2,4.4,4.4C25.3,23.4,23.4,25.3,20.9,25.3 M20.9,14.2
		c-3.7,0-6.7,3-6.7,6.7c0,3.7,3,6.7,6.7,6.7c3.7,0,6.7-3,6.7-6.7C27.7,17.2,24.7,14.2,20.9,14.2 M20.9,7.9c-3.6,0-4,0-5.4,0.1
		c-1.4,0.1-2.3,0.3-3.2,0.6c-0.9,0.3-1.6,0.8-2.3,1.5c-0.7,0.7-1.2,1.5-1.5,2.3c-0.3,0.8-0.5,1.8-0.6,3.2c-0.1,1.4-0.1,1.8-0.1,5.4
		c0,3.6,0,4,0.1,5.4c0.1,1.4,0.3,2.3,0.6,3.2c0.3,0.9,0.8,1.6,1.5,2.3c0.7,0.7,1.5,1.2,2.3,1.5c0.8,0.3,1.8,0.5,3.2,0.6
		c1.4,0.1,1.8,0.1,5.4,0.1s4,0,5.4-0.1c1.4-0.1,2.3-0.3,3.2-0.6c0.9-0.3,1.6-0.8,2.3-1.5c0.7-0.7,1.2-1.5,1.5-2.3
		c0.3-0.8,0.5-1.8,0.6-3.2c0.1-1.4,0.1-1.8,0.1-5.4c0-3.6,0-4-0.1-5.4c-0.1-1.4-0.3-2.3-0.6-3.2c-0.3-0.9-0.8-1.6-1.5-2.3
		c-0.7-0.7-1.5-1.2-2.3-1.5c-0.8-0.3-1.8-0.5-3.2-0.6C24.9,7.9,24.5,7.9,20.9,7.9 M20.9,10.2c3.5,0,3.9,0,5.3,0.1
		c1.3,0.1,2,0.3,2.4,0.5c0.6,0.2,1,0.5,1.5,1c0.5,0.5,0.7,0.9,1,1.5c0.2,0.5,0.4,1.2,0.5,2.4c0.1,1.4,0.1,1.8,0.1,5.3
		c0,3.5,0,3.9-0.1,5.3c-0.1,1.3-0.3,2-0.5,2.4c-0.2,0.6-0.5,1-1,1.5c-0.5,0.5-0.9,0.7-1.5,1c-0.5,0.2-1.2,0.4-2.4,0.5
		c-1.4,0.1-1.8,0.1-5.3,0.1c-3.5,0-3.9,0-5.3-0.1c-1.3-0.1-2-0.3-2.4-0.5c-0.6-0.2-1-0.5-1.5-1c-0.5-0.5-0.7-0.9-1-1.5
		c-0.2-0.5-0.4-1.2-0.5-2.4c-0.1-1.4-0.1-1.8-0.1-5.3c0-3.5,0-3.9,0.1-5.3c0.1-1.3,0.3-2,0.5-2.4c0.2-0.6,0.5-1,1-1.5
		c0.5-0.5,0.9-0.7,1.5-1c0.5-0.2,1.2-0.4,2.4-0.5C17,10.2,17.5,10.2,20.9,10.2"/>
</g>
</svg>
