<?xml version="1.0" encoding="utf-8"?>
<!-- Generator: Adobe Illustrator 22.1.0, SVG Export Plug-In . SVG Version: 6.00 Build 0)  -->
<svg version="1.1" id="Layer_1" xmlns="http://www.w3.org/2000/svg" xmlns:xlink="http://www.w3.org/1999/xlink" x="0px" y="0px"
	 viewBox="0 0 145.1 270" style="enable-background:new 0 0 145.1 270;" xml:space="preserve">
<style type="text/css">
	.st0{fill:#FBDEEB;}
	.st1{fill:#DA2128;}
	.st2{fill:#F6921E;}
	.st3{fill:#C1D2DB;}
	.st4{fill:#FFFFFF;}
	.st5{fill:#8EB1C2;}
	.st6{opacity:0.15;fill:#255EAA;}
	.st7{fill:#250629;}
</style>
<g>
	<g>
		<g>
			<path class="st0" d="M145.1,116.5V82.2c0-2.2-1.2-4.3-3.1-5.4l-13.9-7.8h-7.7c-14-36.8-39.1-62.2-40.1-63.3l-3.5-3.5
				C75.4,0.8,73.5,0,71.6,0c-1.9,0-3.9,0.8-5.2,2.2l-3.5,3.5c-1.9,1.9-47.3,48-49.6,107.6c-0.1,1.7-0.1,3.5-0.1,5.3l-6.7,2.2
				c-3.9,1.3-6.5,4.9-6.5,9v34.3c0,2.4,1.3,4.5,3.4,5.5l0.7,0.3c-0.2,0.8-0.3,1.6-0.3,2.4v17.1c0,2.3,1.3,4.4,3.4,5.5l2.7,1.4
				l-7.2,24.7c-1.3,4.5,0.3,9.3,4.1,12.1c3.8,2.8,8.8,2.9,12.7,0.3l24.5-16.2h4c-2.2,14.2,1.1,32.9,16.6,48.8l1.6,1.6
				c1.4,1.4,3.3,2.2,5.3,2.2c2,0,3.9-0.8,5.3-2.2l1.6-1.6c15.7-16.1,19.2-34.8,17-48.8h3.7l24.5,16.2c3.9,2.6,8.9,2.5,12.7-0.3
				c0.5-0.3,0.9-0.7,1.3-1.1c2.9-2.9,3.9-7,2.8-10.9L127.2,175c-0.7-2.6-2.4-4.7-4.5-6.1c1.1-4.2,2.1-8.3,2.9-12.3l10.5-3.5
				c3.8-1.3,6.4-4.8,6.4-8.8V127c0-1.1-0.3-2.2-0.9-3.1C143.8,122.1,145.1,119.4,145.1,116.5z"/>
			<path class="st1" d="M59.5,212.6c-3.4,9.3-4.6,29,12.2,46.3c16.9-17.6,15.8-37,12.6-46.2L59.5,212.6z"/>
			<path class="st2" d="M67,212.6c-2.2,4.7-4.7,14.1,4.6,21.9c0.5-0.5,1.1-0.9,1.5-1.4c7.5-7.5,5.1-16.1,3.1-20.5L67,212.6z"/>
			<path class="st3" d="M44.4,207.4h54.3l0.6-1.4c0.9-2,22.1-49.3,20.5-92.2c0,0,0-0.1,0-0.1c-2.2-55.8-44.8-99.2-46.7-101L71.6,11
				l-1.7,1.7c-1.8,1.8-44.5,45.2-46.7,101C21.6,156.5,42.9,204,43.8,206L44.4,207.4z"/>
			<path class="st1" d="M113.1,78.1c-12.6-37.7-38.5-64-39.9-65.4L71.6,11l-1.7,1.7C68.5,14.1,42.6,40.4,30,78.1H113.1z"/>
			<g>
				<path class="st4" d="M60.1,207.1l12.2,1.7l-3.9-30.4c-5.1,1.9-9.8,4.1-13.9,6.3C56.1,193.5,58,201.3,60.1,207.1z"/>
				<path class="st5" d="M26.4,150.4c3.4,17.9,8.8,34,12.7,44.3c3.5-2.7,8.7-6.3,15.3-9.9c-2.5-13.1-4.5-28.2-6-41.6L26.4,150.4z"/>
				<path class="st5" d="M105.1,124.6l-42,13.7l5.2,40.1c12-4.5,26.7-7.5,43-5.8c3.4-11.6,6.5-25.2,7.9-39.2l1.1-10.4L105.1,124.6z"
					/>
			</g>
			<path class="st4" d="M66.1,22.4c-4,8.3-10.1,21.7-13.7,32.9L64.8,56l4.1-32.7C69,21.6,66.8,21,66.1,22.4z"/>
			<path class="st4" d="M106.6,86.9c0.8-19.3-14.2-35.7-33.6-36.5C53.7,49.6,37.3,64.6,36.5,84c-0.5,11,4.2,21,11.8,27.7l57.7-20
				C106.3,90.1,106.5,88.5,106.6,86.9z"/>
			<g>
				
					<ellipse transform="matrix(0.7071 -0.7071 0.7071 0.7071 -39.4359 75.6137)" class="st4" cx="71.6" cy="85.4" rx="35.1" ry="35.1"/>
				<path class="st6" d="M42.4,94c1.7,3,5,7.2,11,8.2l4.8-3.6C58.2,98.5,48.7,99.6,42.4,94z"/>
			</g>
			<g>
				<path class="st7" d="M71,59.8l1.3,7l1.9-6.8c5-2.5,11.8-1.3,11.8-1.3l-1.5-3.1c-3.5-1.5-7.3-2.3-11.3-2.5l-0.6,0
					c-4-0.2-7.9,0.4-11.5,1.6l-1.7,2.9C59.4,57.5,66.3,56.9,71,59.8z"/>
				<path class="st7" d="M46.3,78.7l7.1,0.7l-6-3.7c-1-5.5,2-11.7,2-11.7L46,64.6c-2.4,2.9-4.3,6.4-5.6,10.2l-0.2,0.6
					c-1.3,3.8-1.8,7.7-1.7,11.5l2.3,2.5C40.8,89.3,42.2,82.5,46.3,78.7z"/>
				<path class="st7" d="M139.6,81l-12.8-7.2h0H117C103.7,36.3,78.2,10.5,76.8,9.1l-3.5-3.5c-0.5-0.5-1.1-0.7-1.8-0.7
					c-0.7,0-1.3,0.3-1.8,0.7l-3.5,3.5c-1.9,1.9-45.9,46.7-48.1,104.4c-0.1,2.9-0.1,5.7,0,8.6L8,125.5c-1.9,0.6-3.2,2.4-3.2,4.5v34.3
					c0,0.5,0.3,1,0.8,1.2l5.9,2.9c-1.7,0.7-2.9,2.3-2.9,4.2v17.1c0,0.5,0.3,0.9,0.7,1.2l6.4,3l-8.3,28.8c-0.7,2.6,0.2,5.2,2.3,6.8
					c2.1,1.6,5,1.6,7.2,0.2l25.7-17l0,0c0,0,0.1,0,0.1,0h11.4c-3.4,11.1-3.8,32,14.1,50.3l1.6,1.6c0.5,0.5,1.1,0.8,1.8,0.8h0
					c0.7,0,1.3-0.3,1.8-0.8l1.6-1.6c18.1-18.6,17.7-39.4,14.4-50.3h10.9c0.1,0,0.2,0,0.3,0l0,0l25.7,17c2.2,1.5,5,1.4,7.2-0.2
					c0.3-0.2,0.5-0.4,0.7-0.6c1.6-1.6,2.2-3.9,1.6-6.2l-13.4-46.1c-0.7-2.6-3-4.4-5.7-4.5c1.7-5.9,3.2-12.3,4.6-19l3.4-1.1l9.8-3.3
					c1.8-0.6,3.1-2.3,3.1-4.2V127c0-0.5-0.3-0.9-0.7-1.1l-5.5-3.1l5.6-1.9c1.9-0.6,3.2-2.4,3.2-4.5V82.2
					C140.3,81.7,140,81.2,139.6,81z M23.2,113.7c2.1-55.8,44.8-99.2,46.7-101l1.7-1.7l1.7,1.7c1.5,1.5,32,32.5,42.9,75.5l-5.7,2
					c0.1-1,0.2-2.1,0.3-3.1c0.9-21.6-15.9-39.9-37.5-40.8c-21.6-0.9-39.9,15.9-40.8,37.5c-0.5,11.4,4,21.9,11.5,29.4l-20.8,7.2
					C23.1,118.1,23.2,115.9,23.2,113.7z M36.5,84C37.3,64.6,53.7,49.6,73,50.4c19.3,0.8,34.4,17.1,33.6,36.5
					c-0.1,1.6-0.3,3.3-0.5,4.8l-2.2,0.8c0.1-0.5,0.2-1,0.3-1.4c0.2-1.1,0.3-2.5,0.4-3c0.2-3.3-0.1-6.7-0.9-10.1l-0.1-0.6
					c-1-3.9-2.6-7.5-4.7-10.6L95.4,66c0,0,2.5,6.4,1.1,11.8L90.2,81l7.1-0.1c3.4,3.7,4.5,9.6,4.8,11.7c0,0.2-0.1,0.4-0.2,0.6
					l-44.3,15.3c-0.4-0.7-0.8-1.4-1.1-2.2l3.2-6.3l-5.7,4.4C43.9,103.1,40,94.2,39.1,91.4c0.3,3.1,1.6,6.1,3.2,8.9
					c1.1,1.8,2.3,3.6,3.7,5.2c1.4,1.7,2.9,3.3,4.7,4.8l0.5,0.4l-2.8,1C40.7,104.9,36.1,94.9,36.5,84z M71.6,259
					c-16.7-17.4-15.5-37-12.2-46.3l2,0c-2.9,8-2.4,18.1,6.9,25.8l1.6,1.3c0.5,0.4,1.1,0.6,1.6,0.6c0.6,0,1.2-0.2,1.6-0.6l1.6-1.3
					c0.7-0.6,1.3-1.2,1.9-1.8c8.5-8.5,7.1-18.2,5.1-23.9l2.4,0C87.5,222,88.5,241.4,71.6,259z M66.9,212.7l9.4,0.1
					c2,4.4,4.3,12.9-3.2,20.3c-0.5,0.5-1,1-1.5,1.4C62.3,226.7,64.7,217.4,66.9,212.7z M99.4,206l-0.6,1.4H44.4l-0.6-1.4
					c-0.4-0.9-4.6-10.3-9.1-24.1l81.2-27.1C110,182.3,100,204.6,99.4,206z M119.4,131.2l-90.3,31.2c-0.4-1.6-0.8-3.3-1.2-5
					l91.8-30.7C119.6,128.2,119.5,129.7,119.4,131.2z"/>
			</g>
			<path class="st6" d="M80.3,100.5c0,0-8.8,3-18.7-0.8l-2.8,6.5c0.3,0.5,0.5,1,0.9,1.5L80.3,100.5L80.3,100.5z"/>
			<path class="st6" d="M100,92.4c-0.3-1.9-1.3-6.5-3.7-9.5l-2.3,0c0,0-2.2,4.6-7.3,8.4c0,0-0.5,4-3.7,7.8l0.5,0.4l16-5.5
				C99.8,93.4,99.9,92.9,100,92.4z"/>
			<g>
				<path class="st4" d="M34.9,131.1c0,0.8-0.1,1.6-0.4,2.4c-0.3,0.8-0.7,1.5-1.2,2.2c-0.5,0.7-1.2,1.3-1.9,1.9
					c-0.8,0.6-1.7,1-2.7,1.3l-2.3,0.8v2.3l2.2-0.7v3.8l-9.9,3.3v-3.8l1.8-0.6v-10.1l-1.8,0.6v-3.8l9.5-3.1c1.3-0.4,2.3-0.6,3.2-0.6
					c0.8,0,1.5,0.2,2,0.6c0.5,0.4,0.9,0.8,1.1,1.5C34.7,129.5,34.9,130.3,34.9,131.1z M26.4,131.9v4.1l0.7-0.2c0.6-0.2,1-0.5,1.3-1
					c0.2-0.5,0.4-1,0.4-1.5c0-1.4-0.6-1.9-1.8-1.5L26.4,131.9z"/>
				<path class="st4" d="M46.4,134.2l-5,1.7l-0.4,1.3l1.4-0.4v3.8l-8.1,2.7v-3.8l1.3-0.4l5.1-15.5l7.2-2.4l4.7,12.3l1.3-0.4v3.8
					l-8.4,2.8v-3.8l1.3-0.4L46.4,134.2z M43.1,130l-0.6,1.9l2.8-0.9l-0.5-1.5l-0.8-2.6l-0.1,0L43.1,130z"/>
				<path class="st4" d="M63.1,129.8l1.7-0.6v3.8l-9.4,3.1v-3.8l1.9-0.6v-10.1l-1.9,0.6v-3.7l9.4-3.1v3.7l-1.7,0.6V129.8z
					 M72.4,126.6l2.3-0.5v3.3c-0.3,0.2-0.6,0.4-0.9,0.6c-0.3,0.2-0.6,0.4-0.9,0.5c-0.3,0.2-0.6,0.3-0.9,0.4
					c-0.3,0.1-0.5,0.2-0.7,0.3c-0.5,0.2-0.9,0.3-1.3,0.4c-0.4,0.1-0.7,0.1-1,0.1c-0.3,0-0.6-0.1-0.8-0.3c-0.2-0.2-0.5-0.4-0.7-0.7
					l-3.8-5.2v-2l3.6-7.4c0.4-0.9,0.9-1.5,1.4-2c0.5-0.4,1.1-0.7,1.8-1c1.3-0.4,2.5-0.5,3.6-0.2l-0.3,3.4l-2.1,0.8l-2.7,5.1
					L72.4,126.6z"/>
				<path class="st4" d="M76.6,129.1v-3.8l1.8-0.6v-10.1l-1.8,0.6v-3.8l16.5-5.4v6.9l-3.9,1.3v-3.1l-4.9,1.6v3.1l3.7-1.3v3.7
					l-3.7,1.1v3.4l5.1-1.7v-3.4l3.9-1.3v7.2L76.6,129.1z"/>
				<path class="st4" d="M98.5,121.9v-3.8l2-0.7v-10.1l-1.9,0.6v3.1l-3.9,1.3v-6.9l17.4-5.7v6.9l-3.9,1.3v-3.1l-1.9,0.6v10.1l2-0.6
					v3.8L98.5,121.9z"/>
				<path class="st4" d="M124,108.5l-5,1.7l-0.4,1.3l1.4-0.4v3.8l-8.1,2.7v-3.8l1.3-0.4l5.1-15.5l7.2-2.4l4.7,12.3l1.3-0.4v3.8
					l-8.4,2.8V110l1.3-0.4L124,108.5z M120.7,104.3l-0.6,1.9l2.8-0.9l-0.5-1.5l-0.8-2.6l-0.1,0L120.7,104.3z"/>
			</g>
			<g>
				<path class="st4" d="M28.3,175.5c-0.1-0.1-0.1-0.3-0.1-0.6c-2.1,0.6-2.9-0.2-2.9-2.1c0-1.8,0.9-3.2,2.9-4c0-0.2,0-0.3,0.1-0.4
					c0.1-0.2,0.3-0.4,0.6-0.5c0.3-0.1,0.5,0,0.6,0.1c0.1,0.1,0.1,0.2,0.1,0.4c2.1-0.6,2.9,0.2,2.9,2.1c0,1.8-0.9,3.2-2.9,4
					c0,0.3,0,0.4-0.1,0.6c-0.1,0.2-0.3,0.4-0.6,0.5C28.6,175.8,28.4,175.7,28.3,175.5z M28.3,170.1c-1.2,0.4-1.6,1.2-1.6,2.3
					s0.4,1.6,1.6,1.3V170.1z M29.6,173.3c1.2-0.4,1.6-1.2,1.6-2.3s-0.4-1.6-1.6-1.3V173.3z"/>
				<path class="st4" d="M34.1,173.9c-0.3,0.1-0.4,0.1-0.5,0.1c-0.2,0-0.3-0.2-0.3-0.5c0-0.3,0.1-0.5,0.3-0.6
					c0.1-0.1,0.2-0.2,0.5-0.3c0.3-0.1,0.5-0.4,0.6-0.7l-1.6-3.9c-0.1-0.3-0.2-0.6,0-0.9c0.1-0.2,0.3-0.3,0.5-0.4c0.2,0,0.3,0,0.4,0
					c0.1,0.1,0.2,0.2,0.3,0.4l1.1,2.7l1.1-3.4c0.1-0.4,0.2-0.5,0.3-0.6c0.1-0.1,0.2-0.2,0.4-0.3c0.2-0.1,0.4,0,0.5,0.1
					c0.2,0.2,0.2,0.5,0,0.9l-1.7,5.3c-0.3,1-0.8,1.7-1.7,2L34.1,173.9z"/>
				<path class="st4" d="M41.4,165.5v5.1c0,0.3,0,0.5-0.1,0.7c-0.1,0.2-0.3,0.4-0.6,0.5c-0.3,0.1-0.5,0-0.6-0.1
					c-0.1-0.1-0.1-0.3-0.1-0.6v-5.1l-1,0.3c-0.3,0.1-0.4,0.1-0.5,0.1c-0.2,0-0.3-0.2-0.3-0.5c0-0.3,0.1-0.5,0.3-0.6
					c0.1-0.1,0.2-0.2,0.5-0.3l3.4-1.1c0.3-0.1,0.4-0.1,0.5-0.1c0.2,0,0.3,0.2,0.3,0.5c0,0.3-0.1,0.5-0.3,0.6
					c-0.1,0.1-0.2,0.2-0.5,0.3L41.4,165.5z"/>
				<path class="st4" d="M45.6,165.6l1.3-0.4c1.4-0.5,2.3,0.3,2.3,1.5s-0.8,2.5-2.3,3l-1.9,0.6c-0.2,0.1-0.4,0.1-0.6,0
					c-0.2-0.1-0.2-0.4-0.2-0.6v-5.5c0-0.2,0-0.5,0.2-0.7c0.2-0.3,0.4-0.3,0.6-0.4l3-1c0.3-0.1,0.4-0.1,0.5-0.1
					c0.2,0,0.3,0.2,0.3,0.5c0,0.3-0.1,0.5-0.3,0.6c-0.1,0.1-0.2,0.2-0.5,0.3l-2.4,0.8V165.6z M45.6,166.8v2l1.2-0.4
					c0.6-0.2,1-0.7,1-1.3s-0.4-0.9-1-0.7L45.6,166.8z"/>
				<path class="st4" d="M50.8,167.7c-0.7-0.5-0.7-1.3-0.7-2.7s0-2.2,0.7-3.2c0.5-0.6,1-1.1,1.8-1.4c0.8-0.3,1.4-0.2,1.8,0.2
					c0.7,0.5,0.7,1.3,0.7,2.7s0,2.2-0.7,3.2c-0.5,0.6-1,1.1-1.8,1.4C51.8,168.1,51.2,168,50.8,167.7z M51.8,162.4
					c-0.3,0.4-0.3,0.8-0.3,2.2s0.1,1.7,0.3,1.9c0.2,0.2,0.5,0.2,0.9,0.1c0.4-0.1,0.7-0.4,0.9-0.7c0.3-0.4,0.3-0.8,0.3-2.1
					s-0.1-1.7-0.3-1.9c-0.2-0.2-0.5-0.2-0.9-0.1C52.3,161.8,52,162.1,51.8,162.4z"/>
				<path class="st4" d="M60.9,157.8c0.2-0.1,0.4-0.1,0.6,0c0.2,0.1,0.2,0.4,0.2,0.6v5.5c0,0.3,0,0.5-0.1,0.7
					c-0.1,0.2-0.3,0.4-0.6,0.5c-0.3,0.1-0.5,0-0.6-0.1c-0.1-0.1-0.1-0.3-0.1-0.6v-5.1l-1.6,0.5v2.1c0,3.1-0.7,4.1-2.1,4.6
					c-0.3,0.1-0.4,0.1-0.6,0.1c-0.2,0-0.3-0.2-0.3-0.5c0-0.2,0.1-0.5,0.3-0.6c0.1-0.1,0.2-0.1,0.3-0.2c0.9-0.3,1.1-1.4,1.1-3.2v-2.3
					c0-0.2,0-0.5,0.2-0.7c0.2-0.3,0.4-0.3,0.6-0.4L60.9,157.8z"/>
				<path class="st4" d="M64,156.7c0.3-0.1,0.5,0,0.6,0.1c0.1,0.1,0.1,0.3,0.1,0.6v1.8l1.3-0.4c1.4-0.5,2.3,0.3,2.3,1.5
					c0,1.2-0.8,2.5-2.3,3l-1.9,0.6c-0.2,0.1-0.4,0.1-0.6,0c-0.2-0.1-0.2-0.4-0.2-0.6v-5.5c0-0.3,0-0.5,0.1-0.7
					C63.5,157,63.7,156.8,64,156.7z M64.7,160.5v2l1.2-0.4c0.6-0.2,1-0.7,1-1.3s-0.4-0.9-1-0.7L64.7,160.5z"/>
				<path class="st4" d="M70.7,160.9c0,0.3,0,0.5-0.1,0.7c-0.1,0.2-0.3,0.4-0.6,0.5c-0.3,0.1-0.5,0-0.6-0.1
					c-0.1-0.1-0.1-0.3-0.1-0.6v-5.4c0-0.3,0-0.5,0.1-0.7c0.1-0.2,0.3-0.4,0.6-0.5c0.3-0.1,0.5,0,0.6,0.1c0.1,0.1,0.1,0.3,0.1,0.6v2
					l2.3-0.8v-2c0-0.3,0-0.5,0.1-0.7c0.1-0.2,0.3-0.4,0.6-0.5c0.3-0.1,0.5,0,0.6,0.1c0.1,0.1,0.1,0.3,0.1,0.6v5.4
					c0,0.3,0,0.5-0.1,0.7c-0.1,0.2-0.3,0.4-0.6,0.5c-0.3,0.1-0.5,0-0.6-0.1c-0.1-0.1-0.1-0.3-0.1-0.6V158l-2.3,0.8V160.9z"/>
				<path class="st4" d="M81.1,157.3c0.1,0.3,0.2,0.6,0,0.9c-0.1,0.2-0.3,0.3-0.5,0.4c-0.2,0-0.3,0-0.4,0c-0.1-0.1-0.2-0.2-0.3-0.4
					l-0.2-0.6l-2.7,0.9l-0.2,0.7c-0.1,0.4-0.2,0.5-0.3,0.6c-0.1,0.1-0.2,0.2-0.4,0.3c-0.2,0.1-0.4,0-0.5-0.1c-0.2-0.2-0.2-0.5,0-0.9
					l2-6.2c0.1-0.3,0.2-0.4,0.3-0.6c0.1-0.2,0.3-0.3,0.5-0.3c0.2-0.1,0.4-0.1,0.5,0c0.1,0.1,0.2,0.2,0.3,0.4L81.1,157.3z
					 M77.4,157.1l1.8-0.6l-0.9-2.3L77.4,157.1z"/>
				<path class="st4" d="M82.1,156.8l1-2.1c-0.7-0.1-1.2-0.7-1.2-1.6c0-1.2,0.8-2.5,2.3-3l1.9-0.6c0.2-0.1,0.4-0.1,0.6,0
					c0.2,0.1,0.2,0.4,0.2,0.6v5.5c0,0.3,0,0.5-0.1,0.7c-0.1,0.2-0.3,0.4-0.6,0.5c-0.3,0.1-0.5,0-0.6-0.1c-0.1-0.1-0.1-0.3-0.1-0.6
					v-1.8l-1.1,0.4l-1.2,2.6c-0.2,0.4-0.3,0.7-0.7,0.8c-0.1,0-0.2,0-0.4,0c-0.2-0.1-0.3-0.3-0.3-0.5C81.9,157.2,82,157.1,82.1,156.8
					z M84.3,153.3l1.2-0.4v-2l-1.2,0.4c-0.6,0.2-1,0.7-1,1.3C83.3,153.2,83.7,153.5,84.3,153.3z"/>
				<path class="st4" d="M90.9,154.9c-0.2-0.1-0.2-0.4-0.2-0.6v-5.5c0-0.3,0-0.5,0.1-0.7c0.1-0.2,0.3-0.4,0.6-0.5
					c0.3-0.1,0.5,0,0.6,0.1c0.1,0.1,0.1,0.3,0.1,0.6v5.1l2-0.6v-5.1c0-0.3,0-0.5,0.1-0.7c0.1-0.2,0.3-0.4,0.6-0.5
					c0.3-0.1,0.5,0,0.6,0.1c0.1,0.1,0.1,0.3,0.1,0.6v5.1l2-0.6v-5.1c0-0.3,0-0.5,0.1-0.7c0.1-0.2,0.3-0.4,0.6-0.5
					c0.3-0.1,0.5,0,0.6,0.1c0.1,0.1,0.1,0.3,0.1,0.6v5.5c0,0.2,0,0.5-0.2,0.7c-0.2,0.3-0.4,0.3-0.6,0.4l-6.3,2.1
					C91.4,155,91.1,155,90.9,154.9z"/>
				<path class="st4" d="M101.7,147.2l0.3-0.1l1.9-3.1c0.2-0.4,0.4-0.6,0.6-0.6c0.2-0.1,0.3,0,0.4,0c0.1,0.1,0.2,0.2,0.2,0.4
					c0,0.2-0.1,0.4-0.3,0.7l-1.8,2.8l2,1.9c0.2,0.2,0.3,0.3,0.3,0.5c0,0.2-0.1,0.4-0.2,0.6c-0.1,0.1-0.3,0.2-0.4,0.3
					c-0.2,0.1-0.4,0-0.6-0.2l-2.1-2l-0.3,0.1v2.2c0,0.3,0,0.5-0.1,0.7c-0.1,0.2-0.3,0.4-0.6,0.5c-0.3,0.1-0.5,0-0.6-0.1
					c-0.1-0.1-0.1-0.3-0.1-0.6v-5.4c0-0.3,0-0.5,0.1-0.7c0.1-0.2,0.3-0.4,0.6-0.5c0.3-0.1,0.5,0,0.6,0.1c0.1,0.1,0.1,0.3,0.1,0.6
					V147.2z"/>
				<path class="st4" d="M106.9,149.1c-0.7-0.5-0.7-1.3-0.7-2.7s0-2.2,0.7-3.2c0.5-0.6,1.1-1.1,1.8-1.4c0.8-0.3,1.4-0.2,1.8,0.2
					c0.7,0.5,0.7,1.3,0.7,2.7s0,2.2-0.7,3.2c-0.5,0.6-1.1,1.1-1.8,1.4C107.9,149.6,107.4,149.5,106.9,149.1z M107.9,143.8
					c-0.3,0.4-0.3,0.8-0.3,2.2s0.1,1.7,0.3,1.9c0.2,0.2,0.5,0.2,0.9,0.1c0.4-0.1,0.7-0.4,0.9-0.7c0.3-0.4,0.3-0.8,0.3-2.1
					s-0.1-1.7-0.3-1.9c-0.2-0.2-0.5-0.2-0.9-0.1C108.4,143.3,108.1,143.5,107.9,143.8z"/>
				<path class="st4" d="M117,139.2c0.2-0.1,0.4-0.1,0.6,0c0.2,0.1,0.2,0.4,0.2,0.6v5.5c0,0.3,0,0.5-0.1,0.7
					c-0.1,0.2-0.3,0.4-0.6,0.5c-0.3,0.1-0.5,0-0.6-0.1c-0.1-0.1-0.1-0.3-0.1-0.6v-5.1l-1.6,0.5v2.1c0,3.1-0.7,4.1-2.1,4.6
					c-0.3,0.1-0.4,0.1-0.6,0.1c-0.2,0-0.3-0.2-0.3-0.5c0-0.2,0.1-0.5,0.3-0.6c0.1-0.1,0.2-0.1,0.3-0.2c0.9-0.3,1.1-1.4,1.1-3.2v-2.3
					c0-0.2,0-0.5,0.2-0.7c0.2-0.3,0.4-0.3,0.6-0.4L117,139.2z"/>
				<path class="st4" d="M124.4,143c0.1,0.3,0.2,0.6,0,0.9c-0.1,0.2-0.3,0.3-0.5,0.4c-0.2,0-0.3,0-0.4,0c-0.1-0.1-0.2-0.2-0.3-0.4
					l-0.2-0.6l-2.7,0.9l-0.2,0.7c-0.1,0.4-0.2,0.5-0.3,0.6c-0.1,0.1-0.2,0.2-0.4,0.3c-0.2,0.1-0.4,0-0.5-0.1c-0.2-0.2-0.2-0.5,0-0.9
					l2-6.2c0.1-0.3,0.2-0.4,0.3-0.6c0.1-0.2,0.3-0.3,0.5-0.3c0.2-0.1,0.4-0.1,0.5,0c0.1,0.1,0.2,0.2,0.3,0.4L124.4,143z
					 M120.8,142.8l1.8-0.6l-0.9-2.3L120.8,142.8z"/>
			</g>
			<path class="st7" d="M72.5,97.8c5.7-0.1,10.2-1.6,10.2-1.6c5.5-7,4.3-17.1,4.3-17.1c-5-7.2-13.4-9.7-14.6-10.1
				c-1.1,0.3-9.6,2.8-14.6,10.1c0,0-1.2,10,4.3,17.1C62.2,96.2,66.8,97.7,72.5,97.8z"/>
		</g>
	</g>
</g>
</svg>
