<?xml version="1.0" encoding="utf-8"?>
<!-- Generator: Adobe Illustrator 22.1.0, SVG Export Plug-In . SVG Version: 6.00 Build 0)  -->
<svg version="1.1" id="Layer_1" xmlns="http://www.w3.org/2000/svg" xmlns:xlink="http://www.w3.org/1999/xlink" x="0px" y="0px"
	 viewBox="0 0 21.6 15.8" style="enable-background:new 0 0 21.6 15.8;" xml:space="preserve">
<style type="text/css">
	.st0{fill:#C1D2DB;}
	.st1{fill:#F6921E;}
</style>
<g>
	<path class="st0" d="M21.6,3.9v10.7c0,0.6-0.5,1.1-1.1,1.1H1.1c-0.6,0-1.1-0.5-1.1-1.1V3.9l10.8,7.7L21.6,3.9z"/>
	<path class="st1" d="M21.5,0.8C21.4,0.3,21,0,20.5,0H1.1C0.7,0,0.2,0.3,0.1,0.8c-0.1,0.5,0,1,0.4,1.3l9.7,6.9
		c0.4,0.3,0.9,0.3,1.3,0L21.1,2C21.5,1.7,21.7,1.2,21.5,0.8z"/>
</g>
</svg>
