<?xml version="1.0" encoding="utf-8"?>
<!-- Generator: Adobe Illustrator 22.1.0, SVG Export Plug-In . SVG Version: 6.00 Build 0)  -->
<svg version="1.1" id="Layer_1" xmlns="http://www.w3.org/2000/svg" xmlns:xlink="http://www.w3.org/1999/xlink" x="0px" y="0px"
	 viewBox="0 0 20.1 20.1" style="enable-background:new 0 0 20.1 20.1;" xml:space="preserve">
<style type="text/css">
	.st0{fill:#F6921E;}
	.st1{fill:#C1D2DB;}
</style>
<g>
	<path class="st0" d="M19.8,15.8l-3.3-3.3c-0.4-0.4-1.1-0.4-1.6,0c-0.1,0.1-0.1,0.1-0.2,0.2c-0.2,0.2-0.3,0.4-0.6,0.6l4.8,4.8
		c0.3-0.2,0.5-0.5,0.7-0.7l0.1-0.1C20.2,16.9,20.2,16.2,19.8,15.8z"/>
	<path class="st0" d="M6.7,5.8C6.9,5.5,7.1,5.3,7.3,5c0-0.1,0.1-0.1,0.1-0.1c0.4-0.4,0.4-1.1,0-1.6l-3-3C4.2,0.1,3.9,0,3.6,0
		C3.3,0,3,0.1,2.8,0.3L2.7,0.4C2.5,0.6,2.2,0.9,2,1.1L6.7,5.8z"/>
	<path class="st1" d="M12.6,14.3c-0.4,0.2-0.9,0.3-1.4,0.3h0c-1.2,0-2.4-0.7-3.7-1.9c-2.1-2.1-2.3-3.8-1.8-5.2L0.8,2.6
		C0.3,3.4,0,4.4,0,5.5c0.1,2.4,1.9,5.3,5.6,9c3.8,3.8,6.7,5.6,9.2,5.6h0c1.1,0,2-0.3,2.8-0.8L12.6,14.3z"/>
</g>
</svg>
