<?xml version="1.0" encoding="utf-8"?>
<!-- Generator: Adobe Illustrator 22.1.0, SVG Export Plug-In . SVG Version: 6.00 Build 0)  -->
<svg version="1.1" id="Layer_1" xmlns="http://www.w3.org/2000/svg" xmlns:xlink="http://www.w3.org/1999/xlink" x="0px" y="0px"
	 viewBox="0 0 432.8 609.1" style="enable-background:new 0 0 432.8 609.1;" xml:space="preserve">
<style type="text/css">
	.st0{fill:#E0EEF2;}
	.st1{fill:#FFFFFF;}
	.st2{fill:#FBDEEB;}
	.st3{fill:#DA2128;}
	.st4{fill:#F6921E;}
	.st5{fill:#C1D2DB;}
	.st6{fill:#8EB1C2;}
	.st7{opacity:0.15;fill:#255EAA;}
	.st8{fill:#250629;}
</style>
<g>
	<path class="st0" d="M0,593.3c0,5.4,0.5,10.7,1.4,15.9H431c1.2-5.7,1.8-11.6,1.8-17.6c0-46.8-37.9-84.7-84.7-84.7
		c-4.8,0-9.5,0.4-14.1,1.2C328,490,311.1,477,291.2,477c-0.3,0-0.6,0-0.9,0c-1-7.8-6.1-14.2-13.1-17.2c0.2-1.6,0.3-3.3,0.3-5
		c0-22.4-18.2-40.6-40.6-40.6c-10.5,0-20,4-27.2,10.4c-6.5-12.1-19.2-20.3-33.9-20.3c-21.2,0-38.4,17.2-38.4,38.4c0,0,0,0.1,0,0.1
		c-8.5,2.5-14.8,10.1-15.4,19.2c-0.7,0-1.4-0.1-2.1-0.1c-20.4,0-37,16.5-37,37c0,1.2,0.1,2.3,0.2,3.4C36.6,506.5,0,545.6,0,593.3z"
		/>
	<g>
		<rect x="218.3" y="67.7" class="st0" width="32.3" height="445.5"/>
		<rect x="228.4" y="67.7" class="st1" width="12.1" height="445.2"/>
		<path class="st1" d="M95.3,567.2c0,5.9,0.9,11.6,2.6,16.9h285.6c-0.9-30.6-24.8-55.3-54.9-57.8c0-0.8,0.1-1.7,0.1-2.6
			c0-24.6-20-44.6-44.6-44.6c-0.5,0-0.9,0-1.4,0c0.2-1.1,0.4-2.2,0.4-3.4c0-8.5-6.9-15.3-15.3-15.3c-0.1,0-0.2,0-0.3,0
			c0.9-2.7,1.4-5.5,1.4-8.5c0-14.3-11.6-25.9-25.9-25.9c-5.9,0-11.4,2-15.8,5.3c-2.8-1.1-5.8-1.7-9-1.7c-12.8,0-23.3,9.8-24.5,22.2
			h-0.1c-18,0-32.6,14.6-32.6,32.6c0,0.4,0,0.8,0,1.2c-1-0.2-2-0.3-3.1-0.3c-10.1,0-18.3,8.2-18.3,18.3c0,2.8,0.7,5.5,1.8,8
			C115.2,516.6,95.3,539.6,95.3,567.2z"/>
		<g>
			<path class="st2" d="M307,116.5V82.2c0-2.2-1.2-4.3-3.1-5.4L290,68.9h-7.7c-14-36.8-39.1-62.2-40.1-63.3l-3.5-3.5
				c-1.4-1.4-3.3-2.2-5.2-2.2c-1.9,0-3.9,0.8-5.2,2.2l-3.5,3.5c-1.9,1.9-47.3,48-49.6,107.6c-0.1,1.7-0.1,3.5-0.1,5.3l-6.7,2.2
				c-3.9,1.3-6.5,4.9-6.5,9v34.3c0,2.4,1.3,4.5,3.4,5.5l0.7,0.3c-0.2,0.8-0.3,1.6-0.3,2.4v17.1c0,2.3,1.3,4.4,3.4,5.5l2.7,1.4
				l-7.2,24.7c-1.3,4.5,0.3,9.3,4.1,12.1c3.8,2.8,8.8,2.9,12.7,0.3l24.5-16.2h4c-2.2,14.2,1.1,32.9,16.6,48.8l1.6,1.6
				c1.4,1.4,3.3,2.2,5.3,2.2c2,0,3.9-0.8,5.3-2.2l1.6-1.6c15.7-16.1,19.2-34.8,17-48.8h3.7l24.5,16.2c3.9,2.6,8.9,2.5,12.7-0.3
				c0.5-0.3,0.9-0.7,1.3-1.1c2.9-2.9,3.9-7,2.8-10.9L289,175c-0.7-2.6-2.4-4.7-4.5-6.1c1.1-4.2,2.1-8.3,2.9-12.3L298,153
				c3.8-1.3,6.4-4.8,6.4-8.8V127c0-1.1-0.3-2.2-0.9-3.1C305.6,122.1,307,119.4,307,116.5z"/>
			<path class="st3" d="M221.4,212.6c-3.4,9.3-4.6,29,12.2,46.3c16.9-17.6,15.8-37,12.6-46.2L221.4,212.6z"/>
			<path class="st4" d="M228.8,212.6c-2.2,4.7-4.7,14.1,4.6,21.9c0.5-0.5,1.1-0.9,1.5-1.4c7.5-7.5,5.1-16.1,3.1-20.5L228.8,212.6z"
				/>
			<path class="st5" d="M206.3,207.4h54.3l0.6-1.4c0.9-2,22.1-49.3,20.5-92.2c0,0,0-0.1,0-0.1c-2.2-55.8-44.8-99.2-46.7-101
				l-1.7-1.7l-1.7,1.7c-1.8,1.8-44.5,45.2-46.7,101c-1.7,42.9,19.6,90.3,20.5,92.3L206.3,207.4z"/>
			<path class="st3" d="M275,78.1c-12.6-37.7-38.5-64-39.9-65.4l-1.7-1.7l-1.7,1.7c-1.4,1.4-27.3,27.7-39.9,65.4H275z"/>
			<g>
				<path class="st1" d="M221.9,207.1l12.2,1.7l-3.9-30.4c-5.1,1.9-9.8,4.1-13.9,6.3C218,193.5,219.8,201.3,221.9,207.1z"/>
				<path class="st6" d="M188.3,150.4c3.4,17.9,8.8,34,12.7,44.3c3.5-2.7,8.7-6.3,15.3-9.9c-2.5-13.1-4.5-28.2-6-41.6L188.3,150.4z"
					/>
				<path class="st6" d="M267,124.6l-42,13.7l5.2,40.1c12-4.5,26.7-7.5,43-5.8c3.4-11.6,6.5-25.2,7.9-39.2l1.1-10.4L267,124.6z"/>
			</g>
			<path class="st1" d="M228,22.4c-4,8.3-10.1,21.7-13.7,32.9l12.4,0.7l4.1-32.7C230.9,21.6,228.7,21,228,22.4z"/>
			<path class="st1" d="M268.5,86.9c0.8-19.3-14.2-35.7-33.6-36.5c-19.3-0.8-35.7,14.2-36.5,33.6c-0.5,11,4.2,21,11.8,27.7l57.7-20
				C268.2,90.1,268.4,88.5,268.5,86.9z"/>
			<g>
				
					<ellipse transform="matrix(0.7071 -0.7071 0.7071 0.7071 7.9756 190.0752)" class="st1" cx="233.4" cy="85.4" rx="35.1" ry="35.1"/>
				<path class="st7" d="M204.3,94c1.7,3,5,7.2,11,8.2l4.8-3.6C220.1,98.5,210.5,99.6,204.3,94z"/>
			</g>
			<g>
				<path class="st8" d="M232.9,59.8l1.3,7l1.9-6.8c5-2.5,11.8-1.3,11.8-1.3l-1.5-3.1c-3.5-1.5-7.3-2.3-11.3-2.5l-0.6,0
					c-4-0.2-7.9,0.4-11.5,1.6l-1.7,2.9C221.3,57.5,228.1,56.9,232.9,59.8z"/>
				<path class="st8" d="M208.2,78.7l7.1,0.7l-6-3.7c-1-5.5,2-11.7,2-11.7l-3.4,0.6c-2.4,2.9-4.3,6.4-5.6,10.2l-0.2,0.6
					c-1.3,3.8-1.8,7.7-1.7,11.5l2.3,2.5C202.7,89.3,204.1,82.5,208.2,78.7z"/>
				<path class="st8" d="M301.5,81l-12.8-7.2h0h-9.8c-13.4-37.4-38.8-63.3-40.2-64.7l-3.5-3.5c-0.5-0.5-1.1-0.7-1.8-0.7
					c-0.7,0-1.3,0.3-1.8,0.7l-3.5,3.5c-1.9,1.9-45.9,46.7-48.1,104.4c-0.1,2.9-0.1,5.7,0,8.6l-10.1,3.4c-1.9,0.6-3.2,2.4-3.2,4.5
					v34.3c0,0.5,0.3,1,0.8,1.2l5.9,2.9c-1.7,0.7-2.9,2.3-2.9,4.2v17.1c0,0.5,0.3,0.9,0.7,1.2l6.4,3l-8.3,28.8
					c-0.7,2.6,0.2,5.2,2.3,6.8c2.1,1.6,5,1.6,7.2,0.2l25.7-17l0,0c0,0,0.1,0,0.1,0h11.4c-3.4,11.1-3.8,32,14.1,50.3l1.6,1.6
					c0.5,0.5,1.1,0.8,1.8,0.8h0c0.7,0,1.3-0.3,1.8-0.8l1.6-1.6c18.1-18.6,17.7-39.4,14.4-50.3h10.9c0.1,0,0.2,0,0.3,0l0,0l25.7,17
					c2.2,1.5,5,1.4,7.2-0.2c0.3-0.2,0.5-0.4,0.7-0.6c1.6-1.6,2.2-3.9,1.6-6.2l-13.4-46.1c-0.7-2.6-3-4.4-5.7-4.5
					c1.7-5.9,3.2-12.3,4.6-19l3.4-1.1l9.8-3.3c1.8-0.6,3.1-2.3,3.1-4.2V127c0-0.5-0.3-0.9-0.7-1.1l-5.5-3.1l5.6-1.9
					c1.9-0.6,3.2-2.4,3.2-4.5V82.2C302.2,81.7,301.9,81.2,301.5,81z M185.1,113.7c2.1-55.8,44.8-99.2,46.7-101l1.7-1.7l1.7,1.7
					c1.5,1.5,32,32.5,42.9,75.5l-5.7,2c0.1-1,0.2-2.1,0.3-3.1c0.9-21.6-15.9-39.9-37.5-40.8c-21.6-0.9-39.9,15.9-40.8,37.5
					c-0.5,11.4,4,21.9,11.5,29.4l-20.8,7.2C185,118.1,185,115.9,185.1,113.7z M198.4,84c0.8-19.3,17.1-34.4,36.5-33.6
					c19.3,0.8,34.4,17.1,33.6,36.5c-0.1,1.6-0.3,3.3-0.5,4.8l-2.2,0.8c0.1-0.5,0.2-1,0.3-1.4c0.2-1.1,0.3-2.5,0.4-3
					c0.2-3.3-0.1-6.7-0.9-10.1l-0.1-0.6c-1-3.9-2.6-7.5-4.7-10.6l-3.3-0.8c0,0,2.5,6.4,1.1,11.8l-6.3,3.2l7.1-0.1
					c3.4,3.7,4.5,9.6,4.8,11.7c0,0.2-0.1,0.4-0.2,0.6l-44.3,15.3c-0.4-0.7-0.8-1.4-1.1-2.2l3.2-6.3l-5.7,4.4
					c-10.1-1.1-14.1-10.1-14.9-12.9c0.3,3.1,1.6,6.1,3.2,8.9c1.1,1.8,2.3,3.6,3.7,5.2c1.4,1.7,2.9,3.3,4.7,4.8l0.5,0.4l-2.8,1
					C202.6,104.9,197.9,94.9,198.4,84z M233.5,259c-16.7-17.4-15.5-37-12.2-46.3l2,0c-2.9,8-2.4,18.1,6.9,25.8l1.6,1.3
					c0.5,0.4,1.1,0.6,1.6,0.6c0.6,0,1.2-0.2,1.6-0.6l1.6-1.3c0.7-0.6,1.3-1.2,1.9-1.8c8.5-8.5,7.1-18.2,5.1-23.9l2.4,0
					C249.4,222,250.4,241.4,233.5,259z M228.8,212.7l9.4,0.1c2,4.4,4.3,12.9-3.2,20.3c-0.5,0.5-1,1-1.5,1.4
					C224.2,226.7,226.6,217.4,228.8,212.7z M261.2,206l-0.6,1.4h-54.3l-0.6-1.4c-0.4-0.9-4.6-10.3-9.1-24.1l81.2-27.1
					C271.8,182.3,261.8,204.6,261.2,206z M281.3,131.2l-90.3,31.2c-0.4-1.6-0.8-3.3-1.2-5l91.8-30.7
					C281.5,128.2,281.4,129.7,281.3,131.2z"/>
			</g>
			<path class="st7" d="M242.2,100.5c0,0-8.8,3-18.7-0.8l-2.8,6.5c0.3,0.5,0.5,1,0.9,1.5L242.2,100.5L242.2,100.5z"/>
			<path class="st7" d="M261.9,92.4c-0.3-1.9-1.3-6.5-3.7-9.5l-2.3,0c0,0-2.2,4.6-7.3,8.4c0,0-0.5,4-3.7,7.8l0.5,0.4l16-5.5
				C261.6,93.4,261.8,92.9,261.9,92.4z"/>
			<g>
				<path class="st1" d="M196.7,131.1c0,0.8-0.1,1.6-0.4,2.4c-0.3,0.8-0.7,1.5-1.2,2.2c-0.5,0.7-1.2,1.3-1.9,1.9
					c-0.8,0.6-1.7,1-2.7,1.3l-2.3,0.8v2.3l2.2-0.7v3.8l-9.9,3.3v-3.8l1.8-0.6v-10.1l-1.8,0.6v-3.8l9.5-3.1c1.3-0.4,2.3-0.6,3.2-0.6
					c0.8,0,1.5,0.2,2,0.6c0.5,0.4,0.9,0.8,1.1,1.5C196.6,129.5,196.7,130.3,196.7,131.1z M188.2,131.9v4.1l0.7-0.2
					c0.6-0.2,1-0.5,1.3-1c0.2-0.5,0.4-1,0.4-1.5c0-1.4-0.6-1.9-1.8-1.5L188.2,131.9z"/>
				<path class="st1" d="M208.3,134.2l-5,1.7l-0.4,1.3l1.4-0.4v3.8l-8.1,2.7v-3.8l1.3-0.4l5.1-15.5l7.2-2.4l4.7,12.3l1.3-0.4v3.8
					l-8.4,2.8v-3.8l1.3-0.4L208.3,134.2z M205,130l-0.6,1.9l2.8-0.9l-0.5-1.5l-0.8-2.6l-0.1,0L205,130z"/>
				<path class="st1" d="M225,129.8l1.7-0.6v3.8l-9.4,3.1v-3.8l1.9-0.6v-10.1l-1.9,0.6v-3.7l9.4-3.1v3.7l-1.7,0.6V129.8z
					 M234.2,126.6l2.3-0.5v3.3c-0.3,0.2-0.6,0.4-0.9,0.6c-0.3,0.2-0.6,0.4-0.9,0.5c-0.3,0.2-0.6,0.3-0.9,0.4
					c-0.3,0.1-0.5,0.2-0.7,0.3c-0.5,0.2-0.9,0.3-1.3,0.4c-0.4,0.1-0.7,0.1-1,0.1c-0.3,0-0.6-0.1-0.8-0.3c-0.2-0.2-0.5-0.4-0.7-0.7
					l-3.8-5.2v-2l3.6-7.4c0.4-0.9,0.9-1.5,1.4-2c0.5-0.4,1.1-0.7,1.8-1c1.3-0.4,2.5-0.5,3.6-0.2l-0.3,3.4l-2.1,0.8l-2.7,5.1
					L234.2,126.6z"/>
				<path class="st1" d="M238.5,129.1v-3.8l1.8-0.6v-10.1l-1.8,0.6v-3.8L255,106v6.9l-3.9,1.3v-3.1l-4.9,1.6v3.1l3.7-1.3v3.7
					l-3.7,1.1v3.4l5.1-1.7v-3.4l3.9-1.3v7.2L238.5,129.1z"/>
				<path class="st1" d="M260.4,121.9v-3.8l2-0.7v-10.1l-1.9,0.6v3.1l-3.9,1.3v-6.9l17.4-5.7v6.9l-3.9,1.3v-3.1l-1.9,0.6v10.1l2-0.6
					v3.8L260.4,121.9z"/>
				<path class="st1" d="M285.9,108.5l-5,1.7l-0.4,1.3l1.4-0.4v3.8l-8.1,2.7v-3.8l1.3-0.4l5.1-15.5l7.2-2.4l4.7,12.3l1.3-0.4v3.8
					l-8.4,2.8V110l1.3-0.4L285.9,108.5z M282.6,104.3l-0.6,1.9l2.8-0.9l-0.5-1.5l-0.8-2.6l-0.1,0L282.6,104.3z"/>
			</g>
			<g>
				<path class="st1" d="M190.2,175.5c-0.1-0.1-0.1-0.3-0.1-0.6c-2.1,0.6-2.9-0.2-2.9-2.1c0-1.8,0.9-3.2,2.9-4c0-0.2,0-0.3,0.1-0.4
					c0.1-0.2,0.3-0.4,0.6-0.5c0.3-0.1,0.5,0,0.6,0.1c0.1,0.1,0.1,0.2,0.1,0.4c2.1-0.6,2.9,0.2,2.9,2.1c0,1.8-0.9,3.2-2.9,4
					c0,0.3,0,0.4-0.1,0.6c-0.1,0.2-0.3,0.4-0.6,0.5C190.5,175.8,190.3,175.7,190.2,175.5z M190.1,170.1c-1.2,0.4-1.6,1.2-1.6,2.3
					s0.4,1.6,1.6,1.3V170.1z M191.4,173.3c1.2-0.4,1.6-1.2,1.6-2.3s-0.4-1.6-1.6-1.3V173.3z"/>
				<path class="st1" d="M196,173.9c-0.3,0.1-0.4,0.1-0.5,0.1c-0.2,0-0.3-0.2-0.3-0.5c0-0.3,0.1-0.5,0.3-0.6
					c0.1-0.1,0.2-0.2,0.5-0.3c0.3-0.1,0.5-0.4,0.6-0.7L195,168c-0.1-0.3-0.2-0.6,0-0.9c0.1-0.2,0.3-0.3,0.5-0.4c0.2,0,0.3,0,0.4,0
					c0.1,0.1,0.2,0.2,0.3,0.4l1.1,2.7l1.1-3.4c0.1-0.4,0.2-0.5,0.3-0.6c0.1-0.1,0.2-0.2,0.4-0.3c0.2-0.1,0.4,0,0.5,0.1
					c0.2,0.2,0.2,0.5,0,0.9l-1.7,5.3c-0.3,1-0.8,1.7-1.7,2L196,173.9z"/>
				<path class="st1" d="M203.2,165.5v5.1c0,0.3,0,0.5-0.1,0.7c-0.1,0.2-0.3,0.4-0.6,0.5c-0.3,0.1-0.5,0-0.6-0.1
					c-0.1-0.1-0.1-0.3-0.1-0.6v-5.1l-1,0.3c-0.3,0.1-0.4,0.1-0.5,0.1c-0.2,0-0.3-0.2-0.3-0.5c0-0.3,0.1-0.5,0.3-0.6
					c0.1-0.1,0.2-0.2,0.5-0.3l3.4-1.1c0.3-0.1,0.4-0.1,0.5-0.1c0.2,0,0.3,0.2,0.3,0.5c0,0.3-0.1,0.5-0.3,0.6
					c-0.1,0.1-0.2,0.2-0.5,0.3L203.2,165.5z"/>
				<path class="st1" d="M207.5,165.6l1.3-0.4c1.4-0.5,2.3,0.3,2.3,1.5s-0.8,2.5-2.3,3l-1.9,0.6c-0.2,0.1-0.4,0.1-0.6,0
					c-0.2-0.1-0.2-0.4-0.2-0.6v-5.5c0-0.2,0-0.5,0.2-0.7c0.2-0.3,0.4-0.3,0.6-0.4l3-1c0.3-0.1,0.4-0.1,0.5-0.1
					c0.2,0,0.3,0.2,0.3,0.5c0,0.3-0.1,0.5-0.3,0.6c-0.1,0.1-0.2,0.2-0.5,0.3l-2.4,0.8V165.6z M207.5,166.8v2l1.2-0.4
					c0.6-0.2,1-0.7,1-1.3s-0.4-0.9-1-0.7L207.5,166.8z"/>
				<path class="st1" d="M212.7,167.7c-0.7-0.5-0.7-1.3-0.7-2.7s0-2.2,0.7-3.2c0.5-0.6,1-1.1,1.8-1.4c0.8-0.3,1.4-0.2,1.8,0.2
					c0.7,0.5,0.7,1.3,0.7,2.7s0,2.2-0.7,3.2c-0.5,0.6-1,1.1-1.8,1.4C213.7,168.1,213.1,168,212.7,167.7z M213.6,162.4
					c-0.3,0.4-0.3,0.8-0.3,2.2s0.1,1.7,0.3,1.9c0.2,0.2,0.5,0.2,0.9,0.1c0.4-0.1,0.7-0.4,0.9-0.7c0.3-0.4,0.3-0.8,0.3-2.1
					s-0.1-1.7-0.3-1.9c-0.2-0.2-0.5-0.2-0.9-0.1C214.1,161.8,213.8,162.1,213.6,162.4z"/>
				<path class="st1" d="M222.7,157.8c0.2-0.1,0.4-0.1,0.6,0c0.2,0.1,0.2,0.4,0.2,0.6v5.5c0,0.3,0,0.5-0.1,0.7
					c-0.1,0.2-0.3,0.4-0.6,0.5c-0.3,0.1-0.5,0-0.6-0.1c-0.1-0.1-0.1-0.3-0.1-0.6v-5.1l-1.6,0.5v2.1c0,3.1-0.7,4.1-2.1,4.6
					c-0.3,0.1-0.4,0.1-0.6,0.1c-0.2,0-0.3-0.2-0.3-0.5c0-0.2,0.1-0.5,0.3-0.6c0.1-0.1,0.2-0.1,0.3-0.2c0.9-0.3,1.1-1.4,1.1-3.2v-2.3
					c0-0.2,0-0.5,0.2-0.7c0.2-0.3,0.4-0.3,0.6-0.4L222.7,157.8z"/>
				<path class="st1" d="M225.8,156.7c0.3-0.1,0.5,0,0.6,0.1c0.1,0.1,0.1,0.3,0.1,0.6v1.8l1.3-0.4c1.4-0.5,2.3,0.3,2.3,1.5
					c0,1.2-0.8,2.5-2.3,3L226,164c-0.2,0.1-0.4,0.1-0.6,0c-0.2-0.1-0.2-0.4-0.2-0.6v-5.5c0-0.3,0-0.5,0.1-0.7
					C225.4,157,225.6,156.8,225.8,156.7z M226.5,160.5v2l1.2-0.4c0.6-0.2,1-0.7,1-1.3s-0.4-0.9-1-0.7L226.5,160.5z"/>
				<path class="st1" d="M232.6,160.9c0,0.3,0,0.5-0.1,0.7c-0.1,0.2-0.3,0.4-0.6,0.5c-0.3,0.1-0.5,0-0.6-0.1
					c-0.1-0.1-0.1-0.3-0.1-0.6v-5.4c0-0.3,0-0.5,0.1-0.7c0.1-0.2,0.3-0.4,0.6-0.5c0.3-0.1,0.5,0,0.6,0.1c0.1,0.1,0.1,0.3,0.1,0.6v2
					l2.3-0.8v-2c0-0.3,0-0.5,0.1-0.7c0.1-0.2,0.3-0.4,0.6-0.5c0.3-0.1,0.5,0,0.6,0.1c0.1,0.1,0.1,0.3,0.1,0.6v5.4
					c0,0.3,0,0.5-0.1,0.7c-0.1,0.2-0.3,0.4-0.6,0.5c-0.3,0.1-0.5,0-0.6-0.1c-0.1-0.1-0.1-0.3-0.1-0.6V158l-2.3,0.8V160.9z"/>
				<path class="st1" d="M242.9,157.3c0.1,0.3,0.2,0.6,0,0.9c-0.1,0.2-0.3,0.3-0.5,0.4c-0.2,0-0.3,0-0.4,0c-0.1-0.1-0.2-0.2-0.3-0.4
					l-0.2-0.6l-2.7,0.9l-0.2,0.7c-0.1,0.4-0.2,0.5-0.3,0.6c-0.1,0.1-0.2,0.2-0.4,0.3c-0.2,0.1-0.4,0-0.5-0.1c-0.2-0.2-0.2-0.5,0-0.9
					l2-6.2c0.1-0.3,0.2-0.4,0.3-0.6c0.1-0.2,0.3-0.3,0.5-0.3c0.2-0.1,0.4-0.1,0.5,0c0.1,0.1,0.2,0.2,0.3,0.4L242.9,157.3z
					 M239.3,157.1l1.8-0.6l-0.9-2.3L239.3,157.1z"/>
				<path class="st1" d="M244,156.8l1-2.1c-0.7-0.1-1.2-0.7-1.2-1.6c0-1.2,0.8-2.5,2.3-3l1.9-0.6c0.2-0.1,0.4-0.1,0.6,0
					c0.2,0.1,0.2,0.4,0.2,0.6v5.5c0,0.3,0,0.5-0.1,0.7c-0.1,0.2-0.3,0.4-0.6,0.5c-0.3,0.1-0.5,0-0.6-0.1c-0.1-0.1-0.1-0.3-0.1-0.6
					v-1.8l-1.1,0.4l-1.2,2.6c-0.2,0.4-0.3,0.7-0.7,0.8c-0.1,0-0.2,0-0.4,0c-0.2-0.1-0.3-0.3-0.3-0.5
					C243.8,157.2,243.9,157.1,244,156.8z M246.2,153.3l1.2-0.4v-2l-1.2,0.4c-0.6,0.2-1,0.7-1,1.3
					C245.2,153.2,245.6,153.5,246.2,153.3z"/>
				<path class="st1" d="M252.8,154.9c-0.2-0.1-0.2-0.4-0.2-0.6v-5.5c0-0.3,0-0.5,0.1-0.7c0.1-0.2,0.3-0.4,0.6-0.5
					c0.3-0.1,0.5,0,0.6,0.1c0.1,0.1,0.1,0.3,0.1,0.6v5.1l2-0.6v-5.1c0-0.3,0-0.5,0.1-0.7c0.1-0.2,0.3-0.4,0.6-0.5
					c0.3-0.1,0.5,0,0.6,0.1c0.1,0.1,0.1,0.3,0.1,0.6v5.1l2-0.6v-5.1c0-0.3,0-0.5,0.1-0.7c0.1-0.2,0.3-0.4,0.6-0.5
					c0.3-0.1,0.5,0,0.6,0.1c0.1,0.1,0.1,0.3,0.1,0.6v5.5c0,0.2,0,0.5-0.2,0.7c-0.2,0.3-0.4,0.3-0.6,0.4l-6.3,2.1
					C253.3,155,253,155,252.8,154.9z"/>
				<path class="st1" d="M263.6,147.2l0.3-0.1l1.9-3.1c0.2-0.4,0.4-0.6,0.6-0.6c0.2-0.1,0.3,0,0.4,0c0.1,0.1,0.2,0.2,0.2,0.4
					c0,0.2-0.1,0.4-0.3,0.7l-1.8,2.8l2,1.9c0.2,0.2,0.3,0.3,0.3,0.5c0,0.2-0.1,0.4-0.2,0.6c-0.1,0.1-0.3,0.2-0.4,0.3
					c-0.2,0.1-0.4,0-0.6-0.2l-2.1-2l-0.3,0.1v2.2c0,0.3,0,0.5-0.1,0.7c-0.1,0.2-0.3,0.4-0.6,0.5c-0.3,0.1-0.5,0-0.6-0.1
					c-0.1-0.1-0.1-0.3-0.1-0.6v-5.4c0-0.3,0-0.5,0.1-0.7c0.1-0.2,0.3-0.4,0.6-0.5c0.3-0.1,0.5,0,0.6,0.1c0.1,0.1,0.1,0.3,0.1,0.6
					V147.2z"/>
				<path class="st1" d="M268.8,149.1c-0.7-0.5-0.7-1.3-0.7-2.7s0-2.2,0.7-3.2c0.5-0.6,1.1-1.1,1.8-1.4c0.8-0.3,1.4-0.2,1.8,0.2
					c0.7,0.5,0.7,1.3,0.7,2.7s0,2.2-0.7,3.2c-0.5,0.6-1.1,1.1-1.8,1.4C269.8,149.6,269.2,149.5,268.8,149.1z M269.7,143.8
					c-0.3,0.4-0.3,0.8-0.3,2.2s0.1,1.7,0.3,1.9c0.2,0.2,0.5,0.2,0.9,0.1c0.4-0.1,0.7-0.4,0.9-0.7c0.3-0.4,0.3-0.8,0.3-2.1
					s-0.1-1.7-0.3-1.9c-0.2-0.2-0.5-0.2-0.9-0.1C270.2,143.3,269.9,143.5,269.7,143.8z"/>
				<path class="st1" d="M278.9,139.2c0.2-0.1,0.4-0.1,0.6,0c0.2,0.1,0.2,0.4,0.2,0.6v5.5c0,0.3,0,0.5-0.1,0.7
					c-0.1,0.2-0.3,0.4-0.6,0.5c-0.3,0.1-0.5,0-0.6-0.1c-0.1-0.1-0.1-0.3-0.1-0.6v-5.1l-1.6,0.5v2.1c0,3.1-0.7,4.1-2.1,4.6
					c-0.3,0.1-0.4,0.1-0.6,0.1c-0.2,0-0.3-0.2-0.3-0.5c0-0.2,0.1-0.5,0.3-0.6c0.1-0.1,0.2-0.1,0.3-0.2c0.9-0.3,1.1-1.4,1.1-3.2v-2.3
					c0-0.2,0-0.5,0.2-0.7c0.2-0.3,0.4-0.3,0.6-0.4L278.9,139.2z"/>
				<path class="st1" d="M286.3,143c0.1,0.3,0.2,0.6,0,0.9c-0.1,0.2-0.3,0.3-0.5,0.4c-0.2,0-0.3,0-0.4,0c-0.1-0.1-0.2-0.2-0.3-0.4
					l-0.2-0.6l-2.7,0.9l-0.2,0.7c-0.1,0.4-0.2,0.5-0.3,0.6c-0.1,0.1-0.2,0.2-0.4,0.3c-0.2,0.1-0.4,0-0.5-0.1c-0.2-0.2-0.2-0.5,0-0.9
					l2-6.2c0.1-0.3,0.2-0.4,0.3-0.6c0.1-0.2,0.3-0.3,0.5-0.3c0.2-0.1,0.4-0.1,0.5,0c0.1,0.1,0.2,0.2,0.3,0.4L286.3,143z
					 M282.6,142.8l1.8-0.6l-0.9-2.3L282.6,142.8z"/>
			</g>
			<path class="st8" d="M234.3,97.8c5.7-0.1,10.2-1.6,10.2-1.6c5.5-7,4.3-17.1,4.3-17.1c-5-7.2-13.4-9.7-14.6-10.1
				c-1.1,0.3-9.6,2.8-14.6,10.1c0,0-1.2,10,4.3,17.1C224.1,96.2,228.7,97.7,234.3,97.8z"/>
		</g>
	</g>
</g>
</svg>
