<?xml version="1.0" encoding="utf-8"?>
<!-- Generator: Adobe Illustrator 22.1.0, SVG Export Plug-In . SVG Version: 6.00 Build 0)  -->
<svg version="1.1" id="Layer_1" xmlns="http://www.w3.org/2000/svg" xmlns:xlink="http://www.w3.org/1999/xlink" x="0px" y="0px"
	 viewBox="0 0 432.8 445.5" style="enable-background:new 0 0 432.8 445.5;" xml:space="preserve">
<style type="text/css">
	.st0{fill:#E0EEF2;}
	.st1{fill:#FFFFFF;}
</style>
<g>
	<path class="st0" d="M0,429.6c0,5.4,0.5,10.7,1.4,15.9H431c1.2-5.7,1.8-11.6,1.8-17.6c0-46.8-37.9-84.7-84.7-84.7
		c-4.8,0-9.5,0.4-14.1,1.2c-5.9-17.9-22.8-30.9-42.8-30.9c-0.3,0-0.6,0-0.9,0c-1-7.8-6.1-14.2-13.1-17.2c0.2-1.6,0.3-3.3,0.3-5
		c0-22.4-18.2-40.6-40.6-40.6c-10.5,0-20,4-27.2,10.4c-6.5-12.1-19.2-20.3-33.9-20.3c-21.2,0-38.4,17.2-38.4,38.4c0,0,0,0.1,0,0.1
		c-8.5,2.5-14.8,10.1-15.4,19.2c-0.7,0-1.4-0.1-2.1-0.1c-20.4,0-37,16.5-37,37c0,1.2,0.1,2.3,0.2,3.4C36.6,342.8,0,381.9,0,429.6z"
		/>
	<g>
		<rect x="218.3" y="0" class="st0" width="32.3" height="445.5"/>
		<rect x="228.4" y="0" class="st1" width="12.1" height="445.2"/>
		<path class="st1" d="M95.3,428.5c0,5.9,0.9,11.6,2.6,16.9h285.6c-0.9-30.6-24.8-55.3-54.9-57.8c0-0.8,0.1-1.7,0.1-2.6
			c0-24.6-20-44.6-44.6-44.6c-0.5,0-0.9,0-1.4,0c0.2-1.1,0.4-2.2,0.4-3.4c0-8.5-6.9-15.3-15.3-15.3c-0.1,0-0.2,0-0.3,0
			c0.9-2.7,1.4-5.5,1.4-8.5c0-14.3-11.6-25.9-25.9-25.9c-5.9,0-11.4,2-15.8,5.3c-2.8-1.1-5.8-1.7-9-1.7c-12.8,0-23.3,9.8-24.5,22.2
			h-0.1c-18,0-32.6,14.6-32.6,32.6c0,0.4,0,0.8,0,1.2c-1-0.2-2-0.3-3.1-0.3c-10.1,0-18.3,8.2-18.3,18.3c0,2.8,0.7,5.5,1.8,8
			C115.2,377.9,95.3,400.9,95.3,428.5z"/>
	</g>
</g>
</svg>
