<?xml version="1.0" encoding="utf-8"?>
<!-- Generator: Adobe Illustrator 22.1.0, SVG Export Plug-In . SVG Version: 6.00 Build 0)  -->
<svg version="1.1" id="Layer_1" xmlns="http://www.w3.org/2000/svg" xmlns:xlink="http://www.w3.org/1999/xlink" x="0px" y="0px"
	 viewBox="0 0 309.9 241.8" style="enable-background:new 0 0 309.9 241.8;" xml:space="preserve">
<style type="text/css">
	.st0{fill:#DA2128;}
</style>
<g>
	<path class="st0" d="M155,241.8c-35.8,0-69.5-4.5-94.9-12.5c-34.2-10.9-41.9-24.4-42.2-33.9l-17.8-87c-0.1-0.3-0.1-0.7-0.1-1
		c0-31.7,72.4-59.5,155-59.5s155,27.8,155,59.5c0,0.3,0,0.7-0.1,1l-17.8,87c-0.3,9.6-8,23.1-42.2,33.9
		C224.5,237.3,190.7,241.8,155,241.8z M10,106.8l17.8,87c0.1,0.3,0.1,0.7,0.1,1c0,8.6,13.2,17.9,35.2,25
		c24.5,7.8,57.1,12.1,91.9,12.1s67.4-4.3,91.9-12.1c22-7,35.2-16.3,35.2-25c0-0.3,0-0.7,0.1-1l17.8-87c-0.4-10.4-16-22.6-40.7-32
		c-28.9-11-65.9-17.1-104.3-17.1S79.6,63.8,50.7,74.8C26,84.2,10.5,96.4,10,106.8z"/>
	<path class="st0" d="M155,160c-40.6,0-78.8-5-107.6-14.2C16.4,135.9,0,122.6,0,107.3c0-2.8,2.2-5,5-5s5,2.2,5,5
		c0,20.2,59.5,42.7,145,42.7c39.6,0,76.7-4.9,104.5-13.7c25.3-8.1,40.4-18.9,40.4-29c0-2.8,2.2-5,5-5s5,2.2,5,5
		c0,15.3-16.4,28.6-47.4,38.5C233.7,154.9,195.5,160,155,160z"/>
	<path class="st0" d="M217,139.5c-0.8,0-1.6-0.2-2.3-0.6c-16-8.4-37.2-13.1-59.7-13.1c-22.2,0-43.2,4.5-59.1,12.7
		c-2.5,1.3-5.5,0.3-6.7-2.1c-1.3-2.5-0.3-5.5,2.1-6.7c17.3-8.9,39.9-13.8,63.6-13.8c24.1,0,47,5,64.4,14.2c2.4,1.3,3.4,4.3,2.1,6.8
		C220.5,138.5,218.8,139.5,217,139.5z"/>
	<path class="st0" d="M268.2,125.9c-1.3,0-2.7-0.5-3.7-1.6c-18-19.4-62-32.5-109.5-32.5s-91.5,13.1-109.5,32.5c-1.9,2-5,2.1-7.1,0.3
		c-2-1.9-2.1-5-0.3-7.1C58.2,95.8,104,81.8,155,81.8c50.9,0,96.8,14,116.9,35.7c1.9,2,1.8,5.2-0.3,7.1
		C270.6,125.4,269.4,125.9,268.2,125.9z"/>
	<path class="st0" d="M182.2,241.8c-2.8,0-5-2.2-5-5v-35.9h-44.5v35.9c0,2.8-2.2,5-5,5s-5-2.2-5-5v-40.9c0-2.8,2.2-5,5-5h54.5
		c2.8,0,5,2.2,5,5v40.9C187.2,239.5,185,241.8,182.2,241.8z"/>
	<path class="st0" d="M155,57.7c-2.8,0-5-2.2-5-5V32.3c0-2.8,2.2-5,5-5s5,2.2,5,5v20.5C160,55.5,157.7,57.7,155,57.7z"/>
	<path class="st0" d="M189.1,37.3h-68.2c-2.8,0-5-2.2-5-5V5c0-2.8,2.2-5,5-5h68.2c2.8,0,5,2.2,5,5v27.3
		C194.1,35,191.8,37.3,189.1,37.3z"/>
	<path class="st0" d="M73.2,67.5c-0.4,0-0.7,0-1.1-0.1c-2.7-0.6-4.4-3.3-3.8-6l6.8-30.2c0.5-2.3,2.5-3.9,4.9-3.9h13.6
		c2.8,0,5,2.2,5,5s-2.2,5-5,5H84L78,63.6C77.5,65.9,75.5,67.5,73.2,67.5z"/>
	<path class="st0" d="M20.3,89.9c-0.5,0-1-0.1-1.5-0.2c-2.6-0.8-4.1-3.6-3.3-6.2l12-39c0.6-2.1,2.6-3.5,4.8-3.5h13.6
		c2.8,0,5,2.2,5,5s-2.2,5-5,5H36L25,86.4C24.4,88.5,22.4,89.9,20.3,89.9z"/>
	<path class="st0" d="M236.8,67.5c-2.3,0-4.3-1.6-4.9-3.9L226,37.3h-9.6c-2.8,0-5-2.2-5-5s2.2-5,5-5H230c2.3,0,4.4,1.6,4.9,3.9
		l6.8,30.2c0.6,2.7-1.1,5.4-3.8,6C237.5,67.5,237.1,67.5,236.8,67.5z"/>
	<path class="st0" d="M289.7,89.9c-2.1,0-4.1-1.4-4.8-3.5L274,50.9H264c-2.8,0-5-2.2-5-5s2.2-5,5-5h13.6c2.2,0,4.1,1.4,4.8,3.5
		l12,39c0.8,2.6-0.7,5.4-3.3,6.2C290.7,89.8,290.2,89.9,289.7,89.9z"/>
</g>
</svg>
