<?xml version="1.0" encoding="utf-8"?>
<!-- Generator: Adobe Illustrator 22.1.0, SVG Export Plug-In . SVG Version: 6.00 Build 0)  -->
<svg version="1.1" id="Isolation_Mode" xmlns="http://www.w3.org/2000/svg" xmlns:xlink="http://www.w3.org/1999/xlink" x="0px"
	 y="0px" viewBox="0 0 41.9 41.9" style="enable-background:new 0 0 41.9 41.9;" xml:space="preserve">
<style type="text/css">
	.st0{fill:#250629;}
	.st1{fill:#FFFFFF;}
</style>
<g>
	<path class="st0" d="M41.9,20.9c0,11.6-9.4,20.9-20.9,20.9C9.4,41.9,0,32.5,0,20.9C0,9.4,9.4,0,20.9,0C32.5,0,41.9,9.4,41.9,20.9z"
		/>
	<g>
		<path class="st1" d="M29.3,20.3H12.6c-2.6,0-4.8,2.1-4.8,4.8V29c0,2.6,2.1,4.8,4.8,4.8h16.6c2.6,0,4.8-2.1,4.8-4.8v-3.8
			C34,22.5,31.9,20.3,29.3,20.3z M16.1,23.3h-1.5V31h-1.5v-7.7h-1.5V22h4.6V23.3z M20.5,31h-1.3v-0.7c-0.2,0.3-0.5,0.5-0.8,0.6
			c-0.3,0.1-0.5,0.2-0.8,0.2c-0.3,0-0.5-0.1-0.7-0.3c-0.2-0.2-0.2-0.5-0.2-0.9v-5.5H18v5.1c0,0.2,0,0.3,0.1,0.3
			c0.1,0.1,0.1,0.1,0.3,0.1c0.1,0,0.2,0,0.4-0.1c0.1-0.1,0.3-0.2,0.4-0.4v-5h1.3V31z M25.3,29.6c0,0.5-0.1,0.8-0.3,1.1
			c-0.2,0.3-0.5,0.4-0.9,0.4c-0.3,0-0.5,0-0.7-0.1c-0.2-0.1-0.4-0.2-0.6-0.4V31h-1.3v-9h1.3v2.9c0.2-0.2,0.4-0.4,0.6-0.5
			c0.2-0.1,0.4-0.2,0.6-0.2c0.4,0,0.7,0.1,1,0.4c0.2,0.3,0.3,0.7,0.3,1.2V29.6z M29.9,27.9h-2.5v1.2c0,0.3,0,0.6,0.1,0.7
			c0.1,0.1,0.2,0.2,0.5,0.2c0.2,0,0.4-0.1,0.5-0.2c0.1-0.1,0.1-0.4,0.1-0.8v-0.3h1.4v0.3c0,0.7-0.2,1.2-0.5,1.5
			c-0.3,0.3-0.8,0.5-1.5,0.5c-0.6,0-1.1-0.2-1.4-0.5c-0.3-0.4-0.5-0.9-0.5-1.5v-3c0-0.6,0.2-1,0.6-1.4c0.4-0.4,0.9-0.5,1.4-0.5
			c0.6,0,1.1,0.2,1.4,0.5c0.3,0.3,0.5,0.8,0.5,1.4V27.9z"/>
		<path class="st1" d="M28,25.4c-0.2,0-0.4,0.1-0.5,0.2c-0.1,0.1-0.1,0.3-0.1,0.6v0.7h1.2v-0.7c0-0.3,0-0.5-0.1-0.6
			C28.3,25.4,28.2,25.4,28,25.4z"/>
		<path class="st1" d="M23.4,25.4c-0.1,0-0.2,0-0.3,0.1c-0.1,0-0.2,0.1-0.3,0.2v4.1c0.1,0.1,0.2,0.2,0.3,0.2c0.1,0,0.2,0.1,0.3,0.1
			c0.2,0,0.3,0,0.4-0.1c0.1-0.1,0.1-0.2,0.1-0.5V26c0-0.2,0-0.4-0.1-0.5C23.7,25.4,23.6,25.4,23.4,25.4z"/>
		<polygon class="st1" points="12.8,8.1 14.8,14.1 14.8,18 16.5,18 16.5,13.9 18.4,8.1 16.7,8.1 15.7,12.1 15.6,12.1 14.5,8.1 		"/>
		<path class="st1" d="M19.2,11.1c-0.4,0.3-0.6,0.8-0.6,1.4v3.8c0,0.6,0.2,1.1,0.6,1.5c0.4,0.4,0.9,0.6,1.6,0.6
			c0.7,0,1.2-0.2,1.6-0.5c0.4-0.4,0.6-0.8,0.6-1.5v-3.8c0-0.6-0.2-1-0.6-1.4c-0.4-0.4-0.9-0.5-1.5-0.5
			C20.1,10.6,19.6,10.7,19.2,11.1z M21.4,12.4v4c0,0.2-0.1,0.3-0.2,0.5c-0.1,0.1-0.3,0.2-0.5,0.2c-0.2,0-0.3-0.1-0.5-0.2
			c-0.1-0.1-0.2-0.3-0.2-0.5v-4c0-0.2,0.1-0.3,0.2-0.4c0.1-0.1,0.3-0.1,0.4-0.1c0.2,0,0.4,0,0.5,0.1C21.3,12.1,21.4,12.2,21.4,12.4z
			"/>
		<path class="st1" d="M28.4,18v-7.3h-1.5v5.5c-0.1,0.2-0.3,0.3-0.5,0.4c-0.2,0.1-0.3,0.2-0.4,0.2c-0.1,0-0.2,0-0.3-0.1
			c-0.1-0.1-0.1-0.2-0.1-0.4v-5.6h-1.5v6.1c0,0.4,0.1,0.8,0.3,1c0.2,0.2,0.4,0.3,0.8,0.3c0.3,0,0.6-0.1,0.9-0.2
			c0.3-0.2,0.6-0.4,0.9-0.7V18H28.4z"/>
	</g>
</g>
</svg>
