<?xml version="1.0" encoding="UTF-8"?><!DOCTYPE svg PUBLIC "-//W3C//DTD SVG 1.1//EN" "http://www.w3.org/Graphics/SVG/1.1/DTD/svg11.dtd"><svg xmlns="http://www.w3.org/2000/svg"><symbol id="icon-i1" viewBox="0 0 77.7 71.9">
    <style>
        .st0{fill:#f6921e}
    </style>
    <path class="st0" d="M38.8 71.9c-15.3 0-23.2-3.3-23.5-3.4-.6-.2-.9-.8-.9-1.4V40.8C6.9 38.5 3.1 34.1.3 29.9c-.3-.4-.3-1-.1-1.4.1-.2 8.2-18.3 11.1-21.4C14 4.2 26.1.2 27.1 0c1.3-.3 2.3.6 3.2 1.5 1.4 1.4 3.6 3.4 8.6 3.4s7.1-2 8.6-3.4c.9-.9 1.9-1.8 3.2-1.5 1 .2 13.1 4.2 15.8 7 2.9 3.1 11 21.2 11.1 21.4.2.5.2 1-.1 1.4-2.8 4.1-6.7 8.6-14.1 10.8v26.3c0 .6-.4 1.1-.9 1.4-.5.3-8.4 3.6-23.7 3.6zM17.4 66c2.4.8 9.7 2.8 21.5 2.8 11.7 0 19-2 21.5-2.8V39.6c0-.7.5-1.3 1.1-1.5 6.8-1.8 10.4-5.4 13-9.3C72.3 24 66.2 11.1 64.3 9c-1.8-2-11.9-5.6-14-6.1-.2.1-.5.5-.8.7-1.7 1.7-4.5 4.3-10.7 4.3-6.1 0-9-2.6-10.6-4.2-.2-.2-.6-.5-.8-.7-2.1.5-12.2 4.1-14 6.1C11.5 11.2 5.3 24 3.2 28.9c2.7 3.8 6.2 7.5 13 9.3.7.2 1.1.8 1.1 1.5.1 4.6.1 21.9.1 26.3z"/>
    <path class="st0" d="M15.9 40.7c-.8 0-1.5-.7-1.5-1.5v-6.6c0-.8.7-1.5 1.5-1.5s1.5.7 1.5 1.5v6.6c0 .9-.7 1.5-1.5 1.5z"/>
    <path class="st0" d="M61.8 40.7c-.8 0-1.5-.7-1.5-1.5v-6.6c0-.8.7-1.5 1.5-1.5s1.5.7 1.5 1.5v6.6c0 .9-.7 1.5-1.5 1.5z"/>
    <path class="st0" d="M43.8 45.6H34c-.8 0-1.5-.7-1.5-1.5s.7-1.5 1.5-1.5h9.8c.8 0 1.5.7 1.5 1.5s-.7 1.5-1.5 1.5z"/>
    <path class="st0" d="M38.8 45.6c-.8 0-1.5-.7-1.5-1.5V27.6h-3.4c-.8 0-1.5-.7-1.5-1.5s.7-1.5 1.5-1.5h4.9c.8 0 1.5.7 1.5 1.5v18c0 .9-.6 1.5-1.5 1.5z"/>
</symbol><symbol id="icon-i2" viewBox="0 0 52.2 78.4">
    <style>
        .st0{fill:#f6921e}
    </style>
    <path class="st0" d="M26.1 78.4c-.4 0-.9-.2-1.2-.6L.3 46.7c-.4-.5-.4-1.1-.2-1.6.3-.5.8-.8 1.4-.8h49.2c.8 0 1.5.7 1.5 1.5s-.7 1.5-1.5 1.5H4.6L27.3 76c.5.7.4 1.6-.2 2.1-.3.2-.7.3-1 .3z"/>
    <path class="st0" d="M1.5 42.4c-.8 0-1.5-.7-1.5-1.5V1.5C0 .7.7 0 1.5 0S3 .7 3 1.5v39.4c0 .8-.7 1.5-1.5 1.5z"/>
    <path class="st0" d="M1.5 21c-.6 0-1.2-.4-1.4-1.1-.2-.8.2-1.6 1-1.9l21.7-6.8L1.1 4.6C.3 4.4-.1 3.5.1 2.7s1.1-1.2 1.9-1l26.2 8.2c.6.2 1.1.8 1.1 1.4s-.4 1.2-1.1 1.4L1.9 21h-.4z"/>
    <path class="st0" d="M19.8 70.4c-.4 0-.9-.2-1.2-.6-.5-.7-.4-1.6.2-2.1 6.8-5.4 10.7-13.4 10.7-22 0-.8.7-1.5 1.5-1.5s1.5.7 1.5 1.5c0 9.5-4.3 18.4-11.8 24.3-.3.3-.6.4-.9.4z"/>
</symbol><symbol id="icon-i3" viewBox="0 0 75.1 58.8">
    <style>
        .st0{fill:#f6921e}
    </style>
    <path class="st0" d="M37.6 58.7c-16 0-33-4-33.3-11.4L0 26.4v-.3c0-7.8 17.6-14.6 37.6-14.6s37.6 6.8 37.6 14.6v.3l-4.3 20.9c-.3 7.4-17.3 11.4-33.3 11.4zM3 26l4.3 20.9v.3c0 3.6 11.5 8.6 30.3 8.6s30.3-5 30.3-8.6v-.3L72.1 26c-.3-4.7-14.7-11.5-34.6-11.5-9.2 0-18.1 1.5-25 4.1-5.6 2.1-9.4 5-9.5 7.4z"/>
    <path class="st0" d="M37.6 39.1C19.4 39.1 0 34.5 0 26.1c0-.8.7-1.5 1.5-1.5s1.5.7 1.5 1.5c0 4.7 14.2 10 34.6 10s34.6-5.3 34.6-10c0-.8.7-1.5 1.5-1.5s1.5.7 1.5 1.5c-.1 8.4-19.4 13-37.6 13z"/>
    <path class="st0" d="M52.5 34.2c-.2 0-.5-.1-.7-.2-3.8-2-8.8-3.1-14.2-3.1-5.3 0-10.3 1.1-14.1 3-.7.4-1.6.1-2-.6-.4-.7-.1-1.6.6-2 4.2-2.2 9.7-3.4 15.4-3.4 5.9 0 11.4 1.2 15.6 3.5.7.4 1 1.3.6 2-.2.5-.7.8-1.2.8z"/>
    <path class="st0" d="M64.8 30.9c-.4 0-.8-.2-1.1-.5-4.3-4.6-14.8-7.7-26.1-7.7s-21.9 3.1-26.1 7.7c-.6.6-1.6.6-2.2.1-.6-.6-.6-1.5-.1-2.1 4.9-5.3 16-8.7 28.3-8.7s23.4 3.4 28.3 8.7c.6.6.5 1.6-.1 2.1-.2.2-.5.4-.9.4z"/>
    <path class="st0" d="M44.1 58.7c-.8 0-1.5-.7-1.5-1.5v-8.3H32.5v8.3c0 .8-.7 1.5-1.5 1.5s-1.5-.7-1.5-1.5v-9.8c0-.8.7-1.5 1.5-1.5h13.1c.8 0 1.5.7 1.5 1.5v9.8c0 .9-.6 1.5-1.5 1.5z"/>
    <path class="st0" d="M37.6 14.5c-.8 0-1.5-.7-1.5-1.5V8.1c0-.8.7-1.5 1.5-1.5s1.5.7 1.5 1.5V13c0 .8-.7 1.5-1.5 1.5z"/>
    <path class="st0" d="M45.8 9.6H29.4c-.8 0-1.5-.7-1.5-1.5V1.5c0-.8.7-1.5 1.5-1.5h16.4c.8 0 1.5.7 1.5 1.5v6.6c0 .8-.7 1.5-1.5 1.5zm-14.9-3h13.4V3H30.9v3.6z"/>
    <path class="st0" d="M17.9 16.8h-.3c-.8-.2-1.3-1-1.1-1.8l1.6-7.3c.2-.7.8-1.2 1.5-1.2h3.3c.8 0 1.5.7 1.5 1.5s-.7 1.5-1.5 1.5h-2.1l-1.4 6.1c-.2.8-.8 1.2-1.5 1.2z"/>
    <path class="st0" d="M5.2 22.2c-.1 0-.3 0-.4-.1-.8-.2-1.2-1.1-1-1.9l2.9-9.4c.2-.6.8-1.1 1.4-1.1h3.3c.8 0 1.5.7 1.5 1.5s-.7 1.5-1.5 1.5H9.2L6.6 21c-.2.8-.8 1.2-1.4 1.2z"/>
    <path class="st0" d="M57.2 16.8c-.7 0-1.3-.5-1.5-1.2l-1.4-6.1h-2.1c-.8 0-1.5-.7-1.5-1.5s.7-1.5 1.5-1.5h3.3c.7 0 1.3.5 1.5 1.2l1.6 7.3c.2.8-.3 1.6-1.1 1.8h-.3z"/>
    <path class="st0" d="M70 22.2c-.6 0-1.2-.4-1.4-1.1L66 12.8h-2.2c-.8 0-1.5-.7-1.5-1.5s.7-1.5 1.5-1.5h3.3c.7 0 1.2.4 1.4 1.1l2.9 9.4c.2.8-.2 1.6-1 1.9H70z"/>
</symbol><symbol id="icon-i4" viewBox="0 0 78.4 42.4">
    <style>
        .st0{fill:#f6921e}
    </style>
    <path class="st0" d="M49.1 37.4h-8.2c-.2 0-.5-.1-.7-.2l-3-1.5h-9.1l-3 1.5c-.2.1-.4.2-.7.2H9.7C3.4 37.4 0 28.9 0 22.8c0-7.5 4.2-17 5.3-19.1.3-.5.8-.8 1.3-.8h.6c1.4 0 4.1-.1 5.2 3.1.3 1 1.6 3.2 3.8 4.2 1.6.7 3.3.7 5.2 0 2.2-.9 3.9-1.8 4.8-2.2V5.2c0-.4.1-.7.4-1l1.3-1.4V1.5c0-.5.3-1 .7-1.3.5-.3 1-.3 1.5 0C38.7 4.9 55.3 13.9 57.8 15c2.3.4 6.3 1.4 10.2 2.7 6.6 2.1 8 3.5 8.5 4.5 1.2 2.5 1.9 7.2 1.9 8.8 0 .5-.2 1-.7 1.2-4.6 3.2-15.8 5.2-28.6 5.2zm-7.9-3H49c13 0 22.4-2.1 26.3-4.2-.2-1.9-.7-5.1-1.5-6.7-1-1.3-10.9-4.4-16.7-5.5-.1 0-.2-.1-.3-.1C54.7 17 36.9 7.3 30.7 4c-.1.1-.1.3-.2.4l-1.3 1.4v3.1c0 .5-.3 1-.8 1.3-.1.1-2.4 1.4-5.9 2.8-2.7 1-5.3 1-7.6 0-2.7-1.3-4.7-3.9-5.4-6-.3-1-.7-1.1-2-1.1C5.9 9.4 3 17.1 3 22.8c0 5.4 2.9 11.6 6.7 11.6h14.4l3-1.5c.2-.1.4-.2.7-.2h9.8c.2 0 .5.1.7.2l2.9 1.5zM29.4 3.3z"/>
    <path class="st0" d="M50.7 30.9H19.5c-7.1 0-11.8-1.8-14.4-5.6-.5-.7-.3-1.6.4-2.1s1.6-.3 2.1.4c2 2.9 5.7 4.3 11.9 4.3h31.2c10.6 0 16.1-.2 20.9-1.6.8-.2 1.6.2 1.8 1 .2.8-.2 1.6-1 1.8-5.1 1.5-10.9 1.8-21.7 1.8z"/>
    <path class="st0" d="M35.9 9.6c-.4 0-.8-.1-1.1-.4-.6-.6-.6-1.5 0-2.1l4.9-4.9c.6-.6 1.5-.6 2.1 0s.6 1.5 0 2.1L37 9.1c-.3.3-.7.5-1.1.5z"/>
    <path class="st0" d="M40.9 12.8c-.4 0-.8-.1-1.1-.4-.6-.6-.6-1.5 0-2.1l4.9-4.9c.6-.6 1.5-.6 2.1 0s.6 1.5 0 2.1l-4.9 4.9c-.3.3-.7.4-1 .4z"/>
    <path class="st0" d="M45.8 16.1c-.4 0-.8-.1-1.1-.4-.6-.6-.6-1.5 0-2.1l4.9-4.9c.6-.6 1.5-.6 2.1 0s.6 1.5 0 2.1l-4.9 4.9c-.3.3-.6.4-1 .4z"/>
    <path class="st0" d="M11.3 42.4c-.8 0-1.5-.7-1.5-1.5V36c0-.8.7-1.5 1.5-1.5s1.5.7 1.5 1.5v4.9c0 .8-.6 1.5-1.5 1.5z"/>
    <path class="st0" d="M22.8 42.4c-.8 0-1.5-.7-1.5-1.5V36c0-.8.7-1.5 1.5-1.5s1.5.7 1.5 1.5v4.9c0 .8-.7 1.5-1.5 1.5z"/>
    <path class="st0" d="M42.5 42.4c-.8 0-1.5-.7-1.5-1.5V36c0-.8.7-1.5 1.5-1.5s1.5.7 1.5 1.5v4.9c0 .8-.7 1.5-1.5 1.5z"/>
    <path class="st0" d="M52.3 42.4c-.8 0-1.5-.7-1.5-1.5V36c0-.8.7-1.5 1.5-1.5s1.5.7 1.5 1.5v4.9c0 .8-.6 1.5-1.5 1.5z"/>
    <path class="st0" d="M62.2 42.4c-.8 0-1.5-.7-1.5-1.5V36c0-.8.7-1.5 1.5-1.5s1.5.7 1.5 1.5v4.9c0 .8-.7 1.5-1.5 1.5z"/>
    <path class="st0" d="M72 40.7c-.8 0-1.5-.7-1.5-1.5v-4.9c0-.8.7-1.5 1.5-1.5s1.5.7 1.5 1.5v4.9c0 .8-.7 1.5-1.5 1.5z"/>
</symbol><symbol id="icon-i5" viewBox="0 0 78.4 73.5">
    <style>
        .st0{fill:#f6921e}
    </style>
    <path class="st0" d="M27.7 29.2h-4.9c-.8 0-1.5-.7-1.5-1.5s.7-1.5 1.5-1.5h4.9c.8 0 1.5.7 1.5 1.5s-.6 1.5-1.5 1.5z"/>
    <path class="st0" d="M27.7 40.7h-3.3c-2.6 0-4.8-2.1-4.8-4.8v-1.6c0-.8.7-1.5 1.5-1.5s1.5.7 1.5 1.5v1.6c0 1 .8 1.8 1.8 1.8h3.3c1 0 1.8-.8 1.8-1.8V31c0-1-.8-1.8-1.8-1.8-.8 0-1.5-.7-1.5-1.5s.7-1.5 1.5-1.5c1 0 1.8-.8 1.8-1.8v-4.9c0-1-.8-1.8-1.8-1.8h-3.3c-1 0-1.8.8-1.8 1.8v1.6c0 .8-.7 1.5-1.5 1.5s-1.5-.7-1.5-1.5v-1.6c0-2.6 2.1-4.8 4.8-4.8h3.3c2.6 0 4.8 2.1 4.8 4.8v4.9c0 1.3-.5 2.4-1.3 3.3.8.9 1.3 2 1.3 3.3v4.9c0 2.7-2.1 4.8-4.8 4.8z"/>
    <path class="st0" d="M55.6 40.7h-9.8c-.8 0-1.5-.7-1.5-1.5v-1.8c0-1.3.6-2.6 1.5-3.5 2.6-2.4 4.5-4.3 5.4-5.4 2.7-3.4 3-5.1 3-5.6v-3.3c0-1-.8-1.8-1.8-1.8h-3.3c-1 0-1.8.8-1.8 1.8v1.6c0 .8-.7 1.5-1.5 1.5s-1.5-.7-1.5-1.5v-1.6c0-2.6 2.1-4.8 4.8-4.8h3.3c2.6 0 4.8 2.1 4.8 4.8v3.3c0 1.9-1.2 4.4-3.6 7.5-1.2 1.6-3.8 4-5.7 5.8-.4.3-.6.8-.6 1.3v.3h6.8V36c0-.8.7-1.5 1.5-1.5s1.5.7 1.5 1.5v3.3c0 .7-.7 1.4-1.5 1.4z"/>
    <path class="st0" d="M40.9 26h-3.3c-.8 0-1.5-.7-1.5-1.5s.7-1.5 1.5-1.5h3.3c.8 0 1.5.7 1.5 1.5s-.7 1.5-1.5 1.5z"/>
    <path class="st0" d="M40.9 34.2h-3.3c-.8 0-1.5-.7-1.5-1.5s.7-1.5 1.5-1.5h3.3c.8 0 1.5.7 1.5 1.5s-.7 1.5-1.5 1.5z"/>
    <path class="st0" d="M76.9 55.5H1.5C.7 55.5 0 54.8 0 54V1.5C0 .7.7 0 1.5 0h75.4c.8 0 1.5.7 1.5 1.5V54c0 .8-.6 1.5-1.5 1.5zM3 52.5h72.4V3H3v49.5z"/>
    <path class="st0" d="M70.4 48.9H8.1c-.8 0-1.5-.7-1.5-1.5V8.1c0-.8.7-1.5 1.5-1.5h62.3c.8 0 1.5.7 1.5 1.5v39.4c0 .7-.7 1.4-1.5 1.4zm-60.8-3h59.3V9.6H9.6v36.3z"/>
    <path class="st0" d="M44.1 63.7h-9.8c-2.6 0-4.8-2.1-4.8-4.8V54c0-.8.7-1.5 1.5-1.5s1.5.7 1.5 1.5v4.9c0 1 .8 1.8 1.8 1.8h9.8c1 0 1.8-.8 1.8-1.8V54c0-.8.7-1.5 1.5-1.5s1.5.7 1.5 1.5v4.9c0 2.6-2.1 4.8-4.8 4.8z"/>
    <path class="st0" d="M34.3 73.5c-.8 0-1.5-.7-1.5-1.5v-9.8c0-.8.7-1.5 1.5-1.5s1.5.7 1.5 1.5V72c0 .8-.7 1.5-1.5 1.5z"/>
    <path class="st0" d="M44.1 73.5c-.8 0-1.5-.7-1.5-1.5v-9.8c0-.8.7-1.5 1.5-1.5s1.5.7 1.5 1.5V72c0 .8-.6 1.5-1.5 1.5z"/>
</symbol><symbol id="icon-i6" viewBox="0 0 78.4 66.9">
    <style>
        .st0{fill:#f6921e}
    </style>
    <path class="st0" d="M40.7 66.9c-5.1 0-10.1-2.1-15-6.3-10-8.6-9.4-21.7-9-25.5l-16-9.7c-.4-.3-.7-.8-.7-1.3V13.4c0-.6.4-1.1.9-1.4L29 .1c.4-.2.9-.2 1.3.1C31.6.9 62.6 17 67.8 20.3c5.9 3.6 9 8.1 10.3 14.5 1.5 7.9-2.2 15.9-9.4 20.3-5.3 3.2-12.9 6.8-17.4 9l-1.7.8c-3.1 1.3-6 2-8.9 2zM3 23.2L19.1 33c.5.3.8.9.7 1.5 0 .1-2.4 15 7.8 23.8 6.9 5.9 13.6 7.1 20.6 3.8l1.7-.8c4.5-2.1 12-5.7 17.2-8.8 6.2-3.7 9.3-10.4 8.1-17.1-1.1-5.6-3.7-9.4-8.9-12.5-4.8-3-32.2-17.4-36.7-19.7L3 14.4v8.8z"/>
    <path class="st0" d="M48 57.7c-.1 0-.3 0-.4-.1-.8-.2-1.2-1.1-1-1.9.9-2.8 1-5.7.5-8.5-1.1-5.5-4.4-10.2-8.7-12.3-.1 0-.1-.1-.2-.1l-29.7-16c-.7-.4-1-1.3-.6-2s1.3-1 2-.6L39.5 32h.1c5.2 2.5 9.1 8 10.4 14.6.6 3.2.4 6.7-.6 9.9-.2.8-.8 1.2-1.4 1.2z"/>
    <path class="st0" d="M47.1 33c-.2 0-.5-.1-.7-.2l-9.4-5c-.7-.4-1-1.3-.6-2s1.3-1 2-.6l9.4 5c.7.4 1 1.3.6 2-.3.5-.8.8-1.3.8z"/>
    <path class="st0" d="M62.9 26.3c-.2 0-.5-.1-.7-.2l-9.4-5c-.7-.4-1-1.3-.6-2s1.3-1 2-.6l9.4 5c.7.4 1 1.3.6 2-.2.5-.8.8-1.3.8z"/>
    <path class="st0" d="M37.7 27.9c-.6 0-1.1-.3-1.4-.9-.3-.8 0-1.6.8-2l15.8-6.7c.8-.3 1.6 0 2 .8.3.8 0 1.6-.8 2l-15.8 6.7c-.2.1-.4.1-.6.1z"/>
    <path class="st0" d="M47.1 33c-.6 0-1.1-.3-1.4-.9-.3-.8 0-1.6.8-2l15.8-6.7c.8-.3 1.6 0 2 .8.3.8 0 1.6-.8 2l-15.8 6.7c-.2 0-.4.1-.6.1z"/>
</symbol><symbol id="icon-i7" viewBox="0 0 77.7 65.3">
    <style>
        .st0{fill:#f6921e}
    </style>
    <path class="st0" d="M50.2 56.7c-5.6 0-10.9-1.2-15.6-3.6-.7-.4-1-1.2-.7-1.9.3-.7 1.1-1.1 1.8-.9 1.6.5 3.6 0 5.3-1.2.6-.4.9-1.4.8-2.3 0-.5-.2-1.2-.8-1.6-.7-.5-1.7-.7-3.1-.4-1 .2-1.8.9-2.9 1.9-1.5 1.5-3.5 3.3-6.9 3.5-7.5.4-10.6-5.8-10.8-6.1-.3-.5-.2-1.1.1-1.6.3-.5.9-.7 1.5-.6 2.7.5 5 .1 6.2-1 .6-.6.9-1.3.9-2.1-.1-.8-.5-1.6-1.1-2.2-2-2-4.6-1.3-9 0l-.2.1C10.5 38.3 2 35 .1 29.1c-.2-.5 0-1.1.3-1.5.4-.6.9-.7 1.5-.6 4.9 1.2 7.5-1 10.7-4 2.3-2.1 5-4.5 8.9-5.7 4.3-1.3 8 .7 11.2 2.5 4 2.2 6.5 3.4 9.2.6.4-.4.7-1.1.7-1.9-.1-.9-.6-1.7-1.6-2.4-.9-.6-3.8-1.3-5.2-.7-.7.3-1.6 0-1.9-.7s-.1-1.6.6-2c4.5-2.6 9.7-4.1 15-4.6 7.3-.6 14.2 1.2 19.4 5.1.7.5.8 1.4.3 2.1-.5.7-1.4.8-2.1.3-4.6-3.5-10.7-5-17.4-4.5-2.9.2-5.7.8-8.4 1.7.6.2 1.1.5 1.5.7 2.2 1.5 2.8 3.3 2.9 4.6.1 1.9-.7 3.4-1.5 4.3-4.5 4.5-8.9 2-12.8-.1-3-1.7-5.8-3.2-8.9-2.3-3.3 1-5.5 3.1-7.7 5.1-2.8 2.5-5.6 5.1-10.1 5.1h-.1c2.6 2.7 7.4 4.2 10.4 3.3l.2-.1c4.4-1.3 8.6-2.6 12 .8 1.2 1.2 1.9 2.6 2 4.1.1 1.7-.5 3.4-1.9 4.6-1.3 1.2-3.1 1.8-5.3 2 1.3 1.1 3.3 2.2 6 2.1 2.4-.1 3.7-1.4 5-2.7 1.2-1.2 2.5-2.4 4.4-2.7 2.8-.5 4.5.3 5.5 1 1.1.9 1.8 2.2 2 3.8.2 2-.7 3.9-2 4.9-.5.4-1 .7-1.6 1C45 53.4 49 53.8 53 53.4c.8-.1 1.5.6 1.6 1.4.1.8-.6 1.5-1.4 1.6-1.1.2-2 .3-3 .3z"/>
    <path class="st0" d="M61.4 65.3H41.7c-.8 0-1.5-.7-1.5-1.5s.7-1.5 1.5-1.5h19.7c.8 0 1.5.7 1.5 1.5s-.7 1.5-1.5 1.5z"/>
    <path class="st0" d="M38.5 65.3h-3.3c-.8 0-1.5-.7-1.5-1.5s.7-1.5 1.5-1.5h3.3c.8 0 1.5.7 1.5 1.5s-.7 1.5-1.5 1.5z"/>
    <path class="st0" d="M45 3H31.9c-.8 0-1.5-.7-1.5-1.5S31.1 0 31.9 0H45c.8 0 1.5.7 1.5 1.5S45.9 3 45 3z"/>
    <path class="st0" d="M28.6 3h-3.3c-.8 0-1.5-.7-1.5-1.5S24.5 0 25.3 0h3.3c.8 0 1.5.7 1.5 1.5S29.5 3 28.6 3z"/>
    <path class="st0" d="M22.1 3h-3.3c-.8 0-1.5-.7-1.5-1.5S18 0 18.8 0h3.3c.8 0 1.5.7 1.5 1.5S22.9 3 22.1 3z"/>
    <path class="st0" d="M20.4 12.8h-8.2c-.8 0-1.5-.7-1.5-1.5s.7-1.5 1.5-1.5h8.2c.8 0 1.5.7 1.5 1.5s-.6 1.5-1.5 1.5z"/>
    <path class="st0" d="M8.9 12.8H5.7c-.8 0-1.5-.7-1.5-1.5s.7-1.5 1.5-1.5H9c.8 0 1.5.7 1.5 1.5s-.7 1.5-1.6 1.5z"/>
    <path class="st0" d="M61.4 50.6c-9 0-16.3-7.3-16.3-16.3S52.4 18 61.4 18s16.3 7.3 16.3 16.3-7.3 16.3-16.3 16.3zm0-29.6c-7.3 0-13.3 5.9-13.3 13.3 0 7.3 5.9 13.3 13.3 13.3 7.3 0 13.3-5.9 13.3-13.3 0-7.3-6-13.3-13.3-13.3z"/>
</symbol><symbol id="icon-i8" viewBox="0 0 78.4 63.7">
    <style>
        .st0{fill:#f6921e}
    </style>
    <path class="st0" d="M6.4 52.2c-3.5 0-6.4-2.9-6.4-6.4V13c0-.8.7-1.5 1.5-1.5h6.6c.8 0 1.5.7 1.5 1.5s-.7 1.5-1.5 1.5H3v31.3c0 1.9 1.5 3.4 3.4 3.4s3.4-1.5 3.4-3.4V1.5c0-.8.7-1.5 1.5-1.5h50.8c.8 0 1.5.7 1.5 1.5v18c0 .8-.7 1.5-1.5 1.5s-1.5-.7-1.5-1.5V3H12.8v42.8c0 3.5-2.8 6.4-6.4 6.4z"/>
    <path class="st0" d="M34.3 52.2H6.4c-.8 0-1.5-.7-1.5-1.5s.7-1.5 1.5-1.5h27.9c.8 0 1.5.7 1.5 1.5s-.7 1.5-1.5 1.5z"/>
    <path class="st0" d="M34.3 37.4H17.9c-.8 0-1.5-.7-1.5-1.5v-18c0-.8.7-1.5 1.5-1.5h23c.8 0 1.5.7 1.5 1.5v6.6c0 .8-.7 1.5-1.5 1.5s-1.5-.7-1.5-1.5v-5.1h-20v15h14.9c.8 0 1.5.7 1.5 1.5s-.7 1.5-1.5 1.5z"/>
    <path class="st0" d="M31 11.2H16.3c-.8 0-1.5-.7-1.5-1.5s.7-1.5 1.5-1.5H31c.8 0 1.5.7 1.5 1.5s-.7 1.5-1.5 1.5z"/>
    <path class="st0" d="M57.3 11.2h-23c-.8 0-1.5-.7-1.5-1.5s.7-1.5 1.5-1.5h23c.8 0 1.5.7 1.5 1.5s-.7 1.5-1.5 1.5z"/>
    <path class="st0" d="M34.3 44h-18c-.8 0-1.5-.7-1.5-1.5s.7-1.5 1.5-1.5h18c.8 0 1.5.7 1.5 1.5s-.7 1.5-1.5 1.5z"/>
    <path class="st0" d="M57.3 63.7c-11.7 0-21.2-9.5-21.2-21.2s9.5-21.2 21.2-21.2 21.2 9.5 21.2 21.2-9.6 21.2-21.2 21.2zm0-39.4c-10 0-18.2 8.2-18.2 18.2s8.2 18.2 18.2 18.2 18.2-8.2 18.2-18.2-8.2-18.2-18.2-18.2z"/>
    <path class="st0" d="M62.1 50.6h-9.6c-.6 0-1.2-.4-1.4-1l-3-9.2c-.2-.6 0-1.3.5-1.7l7.8-5.7c.5-.4 1.2-.4 1.8 0l7.8 5.7c.5.4.7 1.1.5 1.7l-3 9.2c-.2.5-.8 1-1.4 1zm-8.6-3H61l2.3-7.1-6-4.4-6 4.4 2.2 7.1z"/>
    <path class="st0" d="M65 41.4c-.6 0-1.2-.4-1.4-.9-.3-.8.1-1.6.8-2l7-2.8c.8-.3 1.6.1 2 .8.3.8-.1 1.6-.8 2l-7 2.8c-.2.1-.4.1-.6.1z"/>
    <path class="st0" d="M49.5 41.4c-.2 0-.3 0-.5-.1l-7.6-2.8c-.8-.3-1.2-1.2-.9-1.9.3-.8 1.2-1.2 1.9-.9l7.6 2.8c.8.3 1.2 1.2.9 1.9-.3.6-.8 1-1.4 1z"/>
    <path class="st0" d="M67.1 57.3c-.5 0-.9-.2-1.2-.6l-5-6.7c-.5-.7-.4-1.6.3-2.1s1.6-.4 2.1.3l5.1 6.7c.5.7.4 1.6-.3 2.1-.3.2-.6.3-1 .3z"/>
    <path class="st0" d="M47.1 57.3c-.3 0-.7-.1-.9-.3-.6-.5-.8-1.5-.2-2.1l5.3-6.7c.5-.6 1.5-.8 2.1-.2.6.5.8 1.5.2 2.1l-5.3 6.7c-.3.3-.8.5-1.2.5z"/>
    <path class="st0" d="M57.3 35.8c-.8 0-1.5-.7-1.5-1.5v-8.2c0-.8.7-1.5 1.5-1.5s1.5.7 1.5 1.5v8.2c0 .8-.7 1.5-1.5 1.5z"/>
</symbol></svg>